<svg width="20" height="20" viewBox="0 0 20 20" fill="none" xmlns="http://www.w3.org/2000/svg">
<path fill-rule="evenodd" clip-rule="evenodd" d="M9.89423 2.41227V4.82453H8.42376H6.95305L8.89491 6.71805L10.8365 8.61179L12.7782 6.71805L14.72 4.82453H13.2493H11.7788V2.41227V0H10.8365H9.89423V2.41227ZM0 1.95279C0 2.74975 0.00918746 2.75688 1.03489 2.75688C1.64079 2.75688 2.12019 2.87588 2.19157 3.04405C2.25848 3.20211 2.91503 4.72689 3.6505 6.43271C4.38597 8.13853 5.0748 9.74855 5.18151 10.0107C5.32427 10.362 5.19494 10.7695 4.68986 11.5607C3.98973 12.6577 3.82435 13.7155 4.23544 14.4646C4.67055 15.2575 5.77446 15.3926 11.8139 15.3926H17.6683V14.4736V13.5546H11.7788C8.24754 13.5546 5.88942 13.4678 5.88942 13.338C5.88942 13.219 6.1118 12.7538 6.3839 12.3042L6.87837 11.487H10.8467C14.6281 11.487 14.8432 11.4626 15.4124 10.9701C15.7408 10.6859 16.9073 8.87232 18.0047 6.94021L20 3.42749L19.1903 3.05094C18.7451 2.84395 18.3382 2.71897 18.2859 2.77319C18.2339 2.82741 17.3206 4.39929 16.2565 6.26615L14.3214 9.66056L10.6507 9.59738L6.97991 9.5342L5.19777 5.34375L3.41586 1.15352L1.70793 1.151L0 1.1487V1.95279ZM4.6934 16.983C3.88066 17.7759 3.81658 18.5432 4.49316 19.382C5.48493 20.6118 7.77403 19.8748 7.77403 18.3256C7.77403 17.4159 7.54553 17.0161 6.81477 16.6476C5.85715 16.1647 5.46986 16.2261 4.6934 16.983ZM14.9591 16.5769C13.1355 17.5496 13.7657 19.9874 15.8407 19.9874C16.4795 19.9874 16.8136 19.8364 17.1799 19.382C17.8565 18.5432 17.7924 17.7759 16.9797 16.983C16.2503 16.272 15.7278 16.1668 14.9591 16.5769Z" fill="white"/>
</svg>
