<svg width="39" height="37" viewBox="0 0 39 37" fill="none" xmlns="http://www.w3.org/2000/svg">
<path fill-rule="evenodd" clip-rule="evenodd" d="M0.156191 0.692674C-0.347609 2.00519 0.350232 2.61987 2.49919 2.75759L4.60855 2.89267L7.14207 11.4727C11.7269 26.999 11.3326 25.9408 12.885 26.9017C14.1962 27.714 14.9631 27.7676 23.6377 27.6546C35.3553 27.5019 34.3372 28.2503 37.1721 17.7057C38.2998 13.5108 39.116 9.80112 38.9858 9.46144C38.7904 8.95236 36.1618 8.82432 23.932 8.7284L9.11548 8.61267L8.07751 5.09267C7.46371 3.00927 6.66027 1.25851 6.10983 0.802674C4.89015 -0.206686 0.531951 -0.287206 0.156191 0.692674ZM13.8943 31.6713C12.7398 32.9469 13.123 35.2617 14.6269 36.099C15.7133 36.704 15.9606 36.704 17.0469 36.099C19.4709 34.7496 18.5706 30.8327 15.8369 30.8327C15.1857 30.8327 14.3119 31.2102 13.8943 31.6713ZM28.5969 31.7127C27.027 33.2826 27.6896 35.6256 29.9028 36.3283C30.9602 36.664 32.3765 35.9521 33.011 34.7658C34.4326 32.11 30.7481 29.5615 28.5969 31.7127Z" fill="black"/>
</svg>
