<svg width="93" height="110" viewBox="0 0 93 110" fill="none" xmlns="http://www.w3.org/2000/svg">
<mask id="mask0_351_21" style="mask-type:luminance" maskUnits="userSpaceOnUse" x="0" y="0" width="93" height="110">
<path d="M92.5334 0H0V110H92.5334V0Z" fill="white"/>
</mask>
<g mask="url(#mask0_351_21)">
<path fill-rule="evenodd" clip-rule="evenodd" d="M39.0051 4.55133C23.4412 6.72786 10.3651 15.5344 2.58937 29.0768C0.507065 32.7028 -1.86869 39.3916 -2.64471 43.8107C-3.39126 48.0637 -3.41569 55.4507 -2.6982 59.7757C-1.19073 68.8568 3.47705 78.2412 8.99059 83.2755C13.0579 86.9894 17.502 88.9576 25.8259 90.7329C30.5491 91.7401 31.0589 91.7722 31.0589 91.062C31.0589 90.1249 26.7178 88.0974 22.4031 87.0197C17.7257 85.8511 13.6541 83.922 11.2985 81.7587C7.21061 78.0039 2.88706 69.9997 0.931511 62.567C-0.16275 58.4083 -0.259655 57.5314 -0.252678 51.8576C-0.24609 46.2421 -0.138714 45.2713 0.921047 41.2356C6.21987 21.0566 24.0377 7.2435 44.7644 7.24581C64.5728 7.24813 81.8114 19.4842 88.0015 37.935C90.8974 46.5672 90.9227 57.5391 88.0655 65.8868C85.8269 72.4278 82.751 77.4828 77.9543 82.5058C71.5178 89.245 64.9069 92.9604 54.3333 95.7803C52.8533 96.1746 52.2444 96.5787 51.682 97.5387C50.9955 98.7096 50.9919 98.8001 51.6237 99.0415C52.5336 99.3896 58.9479 97.8114 62.8881 96.2697C75.9053 91.1779 86.4324 80.116 90.9191 66.8151C92.7087 61.5091 93.0379 59.1371 93.0193 51.6642C93.0028 45.2297 92.9009 44.1433 91.9944 40.7451C87.1401 22.5545 73.2633 9.23347 55.0913 5.32113C50.6903 4.37364 42.9309 4.00248 39.0051 4.55133ZM40.5556 10.5888C38.2588 10.9399 32.1961 12.3694 31.9216 12.6244C31.757 12.7777 31.9363 13.1864 32.3204 13.5328C32.9677 14.1168 33.2453 14.1018 36.1092 13.3308C38.5807 12.6649 40.3234 12.4946 44.8193 12.4791C52.28 12.4536 57.0009 13.5749 63.3177 16.8731C65.5449 18.0361 66.4102 18.3169 66.7925 18.0006C67.8198 17.1512 67.2264 16.5213 63.7756 14.8001C59.6262 12.7302 55.1109 11.3076 50.8964 10.7422C48.0003 10.3536 42.6154 10.2736 40.5556 10.5888ZM24.4963 15.8217C23.9874 16.5456 23.9761 16.7909 24.4215 17.4633C25.2161 18.6634 26.8829 18.7148 27.4128 17.5552C28.3707 15.4606 25.8169 13.9426 24.4963 15.8217ZM38.2299 15.6703C34.5572 16.5243 28.9269 18.7723 28.9269 19.3842C28.9269 19.7588 30.3303 20.6333 31.909 21.242C32.0537 21.298 32.3225 20.7665 32.5057 20.0616C32.8178 18.8615 32.9187 18.7967 34.0812 19.0466C35.8087 19.4181 37.9683 20.5587 39.5299 21.9253C40.4493 22.7299 41.2571 23.0817 42.184 23.0817C44.3016 23.0817 47.2137 24.1095 49.5554 25.6827C56.1447 30.1115 59.8367 32.7478 60.589 33.5612C61.6965 34.7586 62.2625 36.3023 62.2625 38.1265C62.2625 39.5229 62.5541 39.8764 67.6942 44.7163C70.7402 47.5842 73.2303 50.246 73.3639 50.7761C73.6614 51.9563 73.2156 52.9447 71.4231 55.0807C70.3145 56.4016 70.015 57.0903 70.015 58.3183C70.015 60.0217 69.095 61.7934 67.4883 63.1855C66.7948 63.7865 66.5484 64.285 66.728 64.7253C67.3879 66.3446 67.3995 70.2234 66.7497 71.919C65.1798 76.0152 59.5913 79.4057 55.9225 78.4883L55.0232 78.2636L56.1232 77.09C56.7285 76.4445 57.2233 75.5872 57.2233 75.1846C57.2233 74.4049 56.6513 74.1998 56.2553 74.8376C56.1245 75.0486 55.6952 75.3933 55.3016 75.6034C54.653 75.9491 54.6022 75.8486 54.7619 74.5432C55.0918 71.8478 52.3579 69.0498 49.3921 69.0472C47.8677 69.0457 45.9823 69.7228 45.9823 70.2719C45.9823 70.4532 46.7916 71.5918 47.7808 72.8018C50.0448 75.5718 51.9529 79.5076 52.5971 82.739C52.8871 84.1912 53.3305 85.3272 53.6569 85.4521C54.4693 85.7629 58.958 84.5765 61.8152 83.2955C69.0323 80.0608 75.4526 73.0977 78.5159 65.1832C81.1693 58.3286 81.7902 50.0154 80.1464 43.3626C79.1121 39.1787 76.2178 33.0249 73.7705 29.8076C71.6808 27.0606 67.0505 22.585 64.459 20.8086C61.7726 18.9666 57.4359 17.0222 53.9286 16.0871C49.6202 14.938 42.2225 14.7418 38.2299 15.6703ZM18.2021 19.8287C17.8691 20.6931 18.3916 21.6066 19.1382 21.4649C20.1619 21.2702 20.2348 19.7538 19.2328 19.4927C18.723 19.3598 18.3335 19.4869 18.2021 19.8287ZM73.3391 21.6047C73.2501 21.8859 73.1 22.3768 73.0051 22.6955C72.7703 23.4865 73.4078 24.6267 74.085 24.6267C74.8641 24.6267 75.3654 23.4521 75.0731 22.3112C74.8053 21.266 73.602 20.7754 73.3391 21.6047ZM22.8757 23.4089C20.8209 24.6955 19.863 26.4251 19.6878 29.1655C19.4921 32.2259 20.2666 34.3892 22.5632 37.1987C23.4862 38.3278 24.0959 39.3065 23.9184 39.3741C23.3334 39.5975 21.5434 45.1634 21.2949 47.5318C21.0054 50.2904 21.5546 50.2884 22.4989 47.5272C22.8411 46.5269 23.8304 44.5179 24.6979 43.0636C26.0333 40.8237 26.363 40.4924 26.855 40.899C27.322 41.2854 27.5044 41.2708 27.7876 40.8245C28.5134 39.6815 28.1055 38.6605 26.1799 36.799C23.1113 33.8331 21.888 30.8233 22.7241 28.2989C23.8447 24.9153 28.3046 24.9183 29.157 28.303C29.4359 29.4097 28.4411 32.4043 27.5495 33.1414C26.7402 33.8103 26.8599 34.6691 27.7629 34.6691C29.0236 34.6691 31.58 32.0778 32.0558 30.3174C32.6651 28.0616 32.2002 26.3258 30.4993 24.5093C29.1139 23.0292 28.8691 22.9226 26.5519 22.7924C24.6017 22.6827 23.8277 22.8125 22.8757 23.4089ZM34.2566 24.1624C33.064 24.3073 33.0278 24.3745 33.5864 25.4143C33.9641 26.1168 34.0453 26.1215 35.3309 25.5109C36.0726 25.1582 36.6794 24.7484 36.6794 24.6001C36.6794 24.2204 35.5148 24.0103 34.2566 24.1624ZM11.4256 27.022C8.83205 30.4737 7.18309 33.329 5.66399 36.9995C4.38678 40.0859 4.22322 41.2356 5.06049 41.2356C5.89891 41.2356 6.62416 40.3445 7.36956 38.4C7.81453 37.2391 8.22078 36.7111 8.5677 36.8435C8.8561 36.954 9.76119 36.446 10.5787 35.7144C12.4393 34.0504 14.9495 32.7678 17.0438 32.4108C18.6052 32.1447 18.6509 32.0948 18.5273 30.7956C18.3188 28.6074 17.7854 28.396 15.4612 29.5796C14.3444 30.1483 12.5377 31.4395 11.4466 32.4483C10.3554 33.4573 9.40264 34.283 9.32899 34.283C8.9119 34.283 11.4601 30.1382 13.2634 27.8829C15.4546 25.1432 15.6422 24.5128 14.3251 24.3181C13.7456 24.2324 12.9982 24.9292 11.4256 27.022ZM39.0941 26.1276C37.9708 26.5143 36.2266 27.522 35.2179 28.3675C32.9512 30.267 30.5553 34.7195 30.2158 37.6628C29.9883 39.6337 30.0091 39.6905 30.9572 39.6905C32.2157 39.6905 32.6396 39.1466 33.2193 36.7887C34.204 32.7827 36.3649 29.8249 39.4419 28.2714C41.7877 27.0868 42.6376 27.0505 40.9129 28.2089C37.3906 30.5737 36.8633 34.5496 39.7295 37.134C40.8657 38.1587 43.4786 38.5535 45.7246 38.0401C47.4482 37.6458 47.587 37.5293 47.4487 36.59L47.2983 35.5684L48.6324 36.4707C49.3663 36.9671 50.422 37.3753 50.9788 37.3784C51.535 37.381 52.3827 37.4885 52.8626 37.6165C53.4719 37.7795 53.7348 37.6815 53.7348 37.2923C53.7348 36.3892 52.0502 35.073 49.6135 34.0714L47.3391 33.1367L49.2771 33.372C51.9212 33.6933 53.5831 34.5229 54.8204 36.1393C55.7244 37.3201 55.8957 37.9934 56.1129 41.2101C56.3838 45.2318 57.0907 47.4112 58.651 49.0339C59.5372 49.956 59.5614 50.0501 58.868 49.8694C56.809 49.3328 57.6497 51.6604 59.9345 52.8218C62.8812 54.3198 63.6443 53.3866 61.2123 51.2591C60.4215 50.567 60.0289 50.0866 60.3403 50.1907C60.6512 50.2951 61.0802 50.1529 61.2935 49.8753C61.8351 49.1696 64.2005 50.3295 64.2005 51.3005C64.2005 52.137 64.9918 52.419 67.2202 52.3768C68.2927 52.3565 69.1482 52.584 69.6285 53.0175C70.9649 54.2229 72.4313 52.8663 71.7213 51.0814C71.5291 50.5982 68.9735 48.083 66.0418 45.4919C60.9762 41.015 60.712 40.7091 60.712 39.3283C60.712 35.3409 54.0591 30.2351 48.8896 30.2547C46.1993 30.2652 42.4936 31.8704 42.4936 33.0254C42.4936 33.5568 42.2921 33.4853 41.4629 32.6588C40.4599 31.6591 40.4498 31.6043 41.0963 30.6213C42.0068 29.2362 43.9832 28.1061 45.4978 28.1045C46.8107 28.103 47.1564 27.5912 46.2037 27.06C45.899 26.8901 45.681 26.5788 45.7192 26.3688C45.7948 25.9513 44.138 25.5097 42.2999 25.4576C41.6603 25.4394 40.2179 25.7407 39.0941 26.1276ZM77.7809 26.1461C77.2004 27.2277 77.2879 28.3184 78.003 28.9102C78.5329 29.3482 78.7078 29.3151 79.166 28.6904C79.463 28.286 79.7055 27.7163 79.7055 27.4243C79.7055 26.6757 78.9725 25.3992 78.5427 25.3992C78.3446 25.3992 78.002 25.7353 77.7809 26.1461ZM24.2657 27.9349C23.7591 29.2629 23.7835 29.4889 24.5103 30.213C24.9909 30.692 25.256 30.7316 25.6732 30.3866C26.6737 29.559 26.1347 26.9444 24.9634 26.9444C24.7878 26.9444 24.4738 27.3899 24.2657 27.9349ZM42.7843 27.1999C43.0511 27.3073 43.4871 27.3073 43.7533 27.1999C44.0201 27.0929 43.8018 27.0053 43.2688 27.0053C42.7358 27.0053 42.5181 27.0929 42.7843 27.1999ZM15.8019 34.3185C12.8645 35.9972 7.4936 41.2741 5.23413 44.7017C2.39324 49.0115 1.35093 52.6612 1.37069 58.2306C1.38891 63.3114 2.24091 66.6282 4.77402 71.4789C6.87108 75.4949 12.1715 80.6996 16.3566 82.8534C19.6832 84.5647 29.9828 87.4233 30.6203 86.8123C30.8092 86.6313 30.5532 85.7665 30.0388 84.8472C29.2231 83.3883 28.8616 83.1323 26.7949 82.5485C22.9086 81.4505 17.9315 79.2831 15.4682 77.6165C10.7496 74.4234 6.93813 69.0143 5.49308 63.4605C3.6437 56.352 5.92876 48.8256 11.7943 42.7083C13.4099 41.0235 15.8116 38.8548 17.1315 37.889L19.5316 36.1327L18.8994 34.6326C18.5517 33.8072 18.18 33.1321 18.0734 33.1321C17.9668 33.1316 16.9446 33.6658 15.8019 34.3185ZM81.337 33.6095C80.8486 33.8403 80.5354 34.2167 80.6417 34.4457C83.6096 40.8553 84.7519 45.9228 84.731 52.584C84.7148 57.7957 84.0574 61.6042 82.4236 65.9557C80.7666 70.3696 80.6278 71.1884 81.4827 71.5154C82.4863 71.8992 82.9615 71.202 84.4823 67.1143C86.6154 61.3785 87.1968 57.5268 86.9603 50.6987C86.7549 44.7654 86.1765 41.6852 84.3709 36.9059C83.2252 33.8732 82.4837 33.0676 81.337 33.6095ZM42.8813 33.6987C42.8813 33.9013 45.5314 35.0661 45.9325 35.0393C46.2439 35.0185 43.5604 33.5483 43.1721 33.5267C43.0119 33.518 42.8813 33.5951 42.8813 33.6987ZM19.2347 37.8173C17.4202 40.305 15.0325 45.5125 14.1758 48.8508C13.2161 52.5905 13.218 56.781 14.1813 60.7852C15.8476 67.71 18.4846 71.8002 25.582 78.4685C31.3909 83.9266 33.0869 86.43 33.468 90.1087C33.6132 91.5087 33.8622 92.2206 34.2066 92.2206C34.9264 92.2206 35.2855 90.5825 35.2692 87.3717C35.2476 83.094 34.1465 81.1492 28.4316 75.2905C23.2474 69.9761 21.7256 67.993 20.0006 64.3063C16.4973 56.8185 17.0582 48.8038 21.624 41.1016C22.4865 39.6466 23.0431 38.3407 22.8617 38.1988C22.6799 38.0566 22.0651 37.5347 21.4957 37.0388L20.4604 36.137L19.2347 37.8173ZM47.4529 39.2078C46.4514 40.0044 45.6232 40.8736 45.6132 41.1389C45.5866 41.8304 47.6417 41.7415 49.2399 40.9821C50.4945 40.3862 50.6527 40.3864 51.5788 40.9911C52.125 41.3479 52.5718 41.8965 52.5718 42.2101C52.5718 42.5238 52.8564 42.7806 53.2044 42.7806C54.1337 42.7806 53.66 39.879 52.5362 38.6869C51.2331 37.3049 49.6398 37.4682 47.4529 39.2078ZM32.7066 40.8407C30.7875 43.0744 29.3954 46.1675 28.9125 49.2706C27.8369 56.1784 31.2124 62.44 37.7379 65.6428C40.2494 66.8752 40.5115 66.9213 45.0038 66.9213C50.5753 66.9213 52.5661 66.3979 57.0719 63.7482C67.6748 57.5137 67.9426 57.3101 66.791 56.3581C66.0957 55.7828 62.8314 57.027 57.5602 59.8764C51.6998 63.0443 49.6104 63.7037 45.4008 63.7143C41.0079 63.7251 38.0926 62.7189 35.4893 60.2924C33.4241 58.3674 31.8267 55.1414 31.5333 52.3036L31.3393 50.4318L32.6406 53.1121C34.7156 57.3867 37.9239 59.8913 42.9786 61.1834C47.5045 62.3402 52.8084 61.3063 59.9053 57.8836C61.7001 57.018 63.7498 56.2013 64.4598 56.0684C65.97 55.7859 66.0882 55.373 64.879 54.6026C63.7196 53.864 61.0985 54.2974 57.0744 55.8931C55.3937 56.5597 52.9518 57.3558 51.6477 57.662C43.5271 59.5705 36.1126 56.1602 34.1614 49.6195C33.3932 47.0454 33.7094 44.8801 35.1931 42.5484C36.3347 40.7551 36.3347 40.7535 35.5546 40.0294C34.4679 39.0209 34.2058 39.0954 32.7066 40.8407ZM40.9431 39.9245C40.9431 40.2656 40.5239 40.8741 40.011 41.2757C38.2082 42.689 37.3568 47.0107 38.2503 50.2159C38.7193 51.9 39.9834 52.2285 40.5125 50.8038C40.8234 49.966 40.8482 49.9748 41.456 51.1455C42.6414 53.4298 47.3664 56.8931 46.6072 54.9208C46.4761 54.5805 47.0063 54.8342 47.8169 55.5003C50.1578 57.4229 51.1307 56.879 49.2771 54.6841C48.5018 53.7655 48.3081 53.1136 48.3081 51.4226C48.3081 48.9462 48.9995 47.4164 50.647 46.2474C52.1018 45.215 51.9583 44.54 50.2659 44.4539C49.4275 44.4112 48.5707 43.9821 47.7596 43.1986C46.8881 42.3569 46.1516 42.0081 45.2466 42.0081C44.3008 42.0081 43.6127 41.6554 42.6099 40.6561C41.0687 39.1204 40.9431 39.0651 40.9431 39.9245ZM43.2688 39.7314C43.2688 39.9214 43.5304 40.0767 43.8503 40.0767C44.1702 40.0767 44.5583 40.0898 44.7128 40.1057C44.8676 40.1217 45.0415 39.9913 45.1 39.816C45.1586 39.6407 44.7706 39.4723 44.2376 39.4417C43.7051 39.4109 43.2688 39.5414 43.2688 39.7314ZM40.9676 41.8883C40.899 43.1749 45.1663 53.2861 45.9927 53.7954C46.3213 53.9977 46.3136 53.8265 45.9656 53.1781C45.2009 51.7542 45.3652 48.4465 46.2772 46.9058L47.0708 45.5662L45.8544 45.3235C44.2327 45.0004 41.7635 43.3366 41.3363 42.2795C41.1472 41.8114 40.981 41.6356 40.9676 41.8883ZM25.6278 47.5089C22.9683 53.2977 24.1156 60.277 28.5531 65.3002C29.4199 66.2817 32.2928 68.6629 34.9375 70.5923C37.5818 72.5216 40.6985 75.1497 41.8631 76.4319C45.5657 80.5089 47.9007 86.0824 47.9146 90.8774C47.9227 93.5571 46.7351 97.5672 45.1663 100.16C43.9081 102.238 39.5562 106.423 36.8107 108.194C35.5917 108.98 35.0773 109.988 35.8951 109.988C36.1038 109.988 37.417 109.559 38.8139 109.035C45.3389 106.588 50.4857 101.182 51.6761 95.5247C52.7501 90.4193 51.9459 85.0693 49.2915 79.6674C47.1905 75.3921 44.4628 72.5319 38.4236 68.2709C33.816 65.0197 30.4382 61.7595 28.8229 59.0032C26.9107 55.7404 26.1316 50.8606 26.9577 47.3171C27.4837 45.0595 26.7015 45.1721 25.6278 47.5089ZM10.6674 48.6709C7.22651 53.3445 6.3532 59.8826 8.43125 65.4169C10.2011 70.1298 14.4817 75.126 18.5095 77.1798C19.6944 77.7834 23.8695 79.4736 24.1785 79.4741C24.2316 79.4744 24.2754 79.306 24.2754 79.1006C24.2754 78.8947 23.3183 78.0217 22.1489 77.1607C18.7789 74.6802 15.1399 71.1151 13.5669 68.7537C11.5648 65.7477 9.94338 60.9502 9.94532 58.0373C9.94725 55.1085 10.8004 51.0529 11.8427 49.0169C12.756 47.2328 12.799 47.0292 12.2614 47.0292C12.0497 47.0292 11.3322 47.7678 10.6674 48.6709ZM52.2633 48.0768C51.4498 50.1897 51.3745 50.874 51.7878 52.4036C52.3347 54.428 53.4131 55.1406 55.9297 55.1406C58.4142 55.1406 58.8331 54.6198 57.1454 53.629C54.6705 52.1761 53.668 50.5555 53.5622 47.8351C53.523 46.8307 52.683 46.9873 52.2633 48.0768ZM60.9561 62.6428C58.2439 64.6446 55.0735 66.6755 53.9108 67.1557C51.674 68.0796 51.35 68.4663 52.5068 68.8321C53.5798 69.1712 60.6186 66.8842 63.0378 65.4099C65.7394 63.7636 67.4558 61.4883 67.0902 60.0379C66.9473 59.4685 66.6178 59.0032 66.3586 59.0032C66.099 59.0032 63.668 60.6407 60.9561 62.6428ZM21.1744 65.6852C21.1744 66.547 24.9219 70.4264 28.2727 73.0337C32.3999 76.245 35.4405 79.5389 36.7521 82.2192C40.3438 89.5606 37.9879 98.232 31.3932 101.94C28.374 103.638 28.6934 104.342 32.1953 103.708C35.7075 103.072 38.2386 101.38 40.2535 98.3222C42.1453 95.452 42.8813 92.9859 42.8813 89.518C42.8813 82.967 39.4486 76.6224 33.5815 72.3311C31.9657 71.1491 21.7306 65.1832 21.3186 65.1832C21.2391 65.1832 21.1744 65.4091 21.1744 65.6852ZM63.1946 65.9961C62.642 66.6045 62.4024 67.6177 62.2416 70.0228C62.059 72.7548 61.8412 73.5342 60.7879 75.2221C59.2696 77.6564 59.2413 78.026 60.615 77.5091C63.4601 76.4381 65.741 72.6226 65.7471 68.9236C65.7531 65.4207 64.756 64.277 63.1946 65.9961ZM58.6941 68.4812C58.579 68.5961 58.5692 69.4362 58.6727 70.3488C58.796 71.4403 58.6466 72.419 58.2354 73.2113C57.4779 74.6705 57.4668 74.8394 58.125 74.8394C59.6066 74.8394 61.7241 70.8753 61.1065 69.2573C60.7577 68.3426 59.3029 67.875 58.6941 68.4812ZM77.1233 76.024C75.0483 76.7926 76.1161 79.8741 78.2711 79.3353C79.4325 79.0448 79.8035 78.2366 79.3368 77.0132C78.9168 75.9121 78.2406 75.6101 77.1233 76.024ZM69.4443 84.1287C68.1709 85.1778 66.2089 86.5151 65.0844 87.1005C63.5396 87.9048 63.0393 88.3776 63.0385 89.0342C63.0373 90.2347 63.6358 90.1303 66.3671 88.4545C70.1708 86.1202 73.116 83.6981 73.116 82.9035C73.116 81.696 71.9073 82.0994 69.4443 84.1287ZM56.2267 90.4548C55.7081 92.5126 57.2581 94.1872 58.0594 92.4347C58.2932 91.9231 58.3718 91.0576 58.2343 90.511C57.9028 89.1956 56.553 89.1578 56.2267 90.4548ZM19.7429 92.7275C19.5072 93.108 19.2886 92.9352 22.1996 94.6702C25.7421 96.7816 31.3509 99.1538 32.8326 99.1675C33.5162 99.1739 35.1289 97.6201 35.1289 96.9551C35.1289 96.7178 34.1287 96.2345 32.9066 95.8805C31.6845 95.5265 29.5479 94.7026 28.1581 94.0497C25.6234 92.8584 20.191 92.0049 19.7429 92.7275ZM33.5784 93.7656C33.5784 93.9782 33.7631 94.152 33.9888 94.152C34.2143 94.152 34.2915 93.9782 34.1599 93.7656C34.0281 93.5532 33.8433 93.3795 33.7492 93.3795C33.655 93.3795 33.5784 93.5532 33.5784 93.7656ZM56.8296 112.242C54.6646 113.377 53.2699 115.858 51.8252 121.143L50.5283 125.887L48.5049 121.336C47.392 118.833 46.3113 116.728 46.1036 116.659C45.8954 116.59 45.229 117.798 44.6225 119.344C44.016 120.89 43.1786 122.927 42.7616 123.871L42.0037 125.587L40.6983 121.989C39.2102 117.887 39.1805 117.713 39.9741 117.713C40.294 117.713 40.5556 117.539 40.5556 117.327C40.5556 117.097 39.0699 116.941 36.8731 116.941C34.6764 116.941 33.1906 117.097 33.1906 117.327C33.1906 117.539 33.5183 117.713 33.9187 117.713C34.3188 117.713 34.8214 117.931 35.0357 118.196C35.5091 118.783 39.7842 130.308 39.7706 130.961C39.7489 132.01 37.0607 135.047 35.73 135.526C34.0407 136.135 33.9527 136.64 35.5357 136.64C38.5578 136.64 40.2401 134.687 43.1104 127.847L45.1715 122.936L46.6851 126.215C47.5176 128.018 48.5627 130.319 49.007 131.329C49.897 133.349 50.6338 133.722 50.6338 132.151C50.6338 130.498 55.2972 116.492 56.4055 114.816C57.1828 113.642 57.8672 113.132 59.2614 112.692C60.2701 112.373 61.0964 111.983 61.0977 111.823C61.1016 111.256 58.1582 111.545 56.8296 112.242ZM54.1644 116.072C53.9224 116.656 53.6479 117.533 53.5545 118.021C53.4611 118.509 53.0114 119.956 52.5553 121.237C52.0989 122.517 51.8236 123.663 51.9439 123.783C52.1619 124 52.8773 122.417 53.0955 121.234C53.1587 120.891 53.5029 119.937 53.8605 119.115C54.2178 118.292 54.5101 117.303 54.5101 116.917C54.5101 116.53 54.6845 116.107 54.8976 115.975C55.3759 115.681 55.4086 115.01 54.9445 115.01C54.7572 115.01 54.4061 115.488 54.1644 116.072ZM-11.6767 116.843C-16.3902 116.953 -17.9958 117.315 -16.0375 117.825C-15.2991 118.018 -15.2622 118.352 -15.2622 124.859C-15.2622 131.366 -15.2991 131.7 -16.0375 131.893C-18.1632 132.446 -16.2274 132.777 -10.8581 132.777H-4.90339L-4.45994 130.578C-4.16302 129.103 -4.1452 128.25 -4.40646 127.99C-4.66811 127.729 -4.7964 127.828 -4.7964 128.288C-4.7964 128.665 -5.30613 129.482 -5.92942 130.103C-6.91088 131.081 -7.35162 131.232 -9.22424 131.232H-11.386V128.421V125.61L-9.35099 125.814C-7.61015 125.988 -7.29811 126.143 -7.1919 126.887C-6.91671 128.819 -6.3469 127.582 -6.3469 125.052C-6.3469 122.271 -6.65155 121.697 -7.321 123.217C-7.62759 123.914 -8.06988 124.11 -9.54478 124.204L-11.386 124.322L-11.3868 121.307L-11.3876 118.293L-9.01336 118.426C-6.79964 118.55 -6.61048 118.635 -6.21432 119.681C-5.56468 121.397 -5.18403 121.026 -5.18403 118.679C-5.18403 116.881 -5.2883 116.568 -5.86237 116.639C-6.23565 116.685 -8.85209 116.777 -11.6767 116.843ZM4.50657 116.933C4.50657 117.451 -1.28298 130.809 -1.81674 131.522C-2.01521 131.787 -2.50554 132.005 -2.90557 132.005C-3.30599 132.005 -3.63353 132.178 -3.63353 132.391C-3.63353 132.609 -2.53539 132.777 -1.11398 132.777C1.13966 132.777 2.19632 132.332 0.935768 131.913C0.569466 131.791 0.572575 131.402 0.951283 130.142L1.43658 128.528H4.0732H6.70943L7.15868 130.022C7.73043 131.923 7.72501 132.005 7.02613 132.005C6.70633 132.005 6.44468 132.178 6.44468 132.391C6.44468 132.623 8.0169 132.777 10.3856 132.777C14.2995 132.777 14.6072 132.667 12.9703 131.85C12.3784 131.555 11.0981 129.191 8.78206 124.114C5.85472 117.697 4.50657 115.433 4.50657 116.933ZM19.9146 116.843C15.0336 116.952 13.3797 117.309 15.36 117.825C16.0984 118.018 16.1353 118.352 16.1353 124.859C16.1353 131.366 16.0984 131.7 15.36 131.893C13.5184 132.373 14.8588 132.777 18.2901 132.777C20.6616 132.777 21.9093 132.638 21.7558 132.391C21.624 132.178 21.2837 132.005 20.9992 132.005C20.2499 132.005 20.0115 131.106 20.0115 128.283V125.784L22.0465 125.901C23.8195 126.003 24.0974 126.13 24.2056 126.887C24.4808 128.819 25.0506 127.582 25.0506 125.052C25.0506 122.271 24.7459 121.697 24.0765 123.217C23.7699 123.914 23.3276 124.11 21.8527 124.204L20.0115 124.322V121.404V118.486H22.5407C25.0409 118.486 25.0727 118.499 25.3026 119.645C25.6812 121.531 26.2134 120.967 26.2134 118.679C26.2134 117.192 26.0682 116.58 25.7289 116.639C25.4627 116.686 22.8462 116.778 19.9146 116.843ZM61.2391 118.583C60.783 119.698 59.3199 123.089 57.9885 126.12C56.0226 130.595 55.3957 131.673 54.6512 131.859C52.9056 132.296 53.7459 132.777 56.2543 132.777C58.6076 132.777 59.5013 132.365 58.2152 131.874C57.7344 131.69 57.7424 131.443 58.2743 130.094L58.8914 128.528H61.3469H63.8024L64.4069 129.969C64.9515 131.268 64.9518 131.453 64.4118 131.847C64.0824 132.086 63.813 132.394 63.813 132.53C63.813 132.666 65.4701 132.777 67.4955 132.777C70.9151 132.777 72.2396 132.372 70.3917 131.89C69.6107 131.686 67.2628 127.093 63.392 118.196C62.9991 117.293 62.5409 116.555 62.3732 116.555C62.2055 116.556 61.6955 117.468 61.2391 118.583ZM69.2398 118.56C69.2398 119.556 69.4141 120.479 69.6272 120.61C69.8406 120.742 70.015 120.578 70.015 120.247C70.015 119.113 71.4783 118.1 73.116 118.1H74.6665V124.895C74.6665 131.366 74.6291 131.7 73.8912 131.893C72.0869 132.363 73.3577 132.777 76.6045 132.777C79.8512 132.777 81.1223 132.363 79.318 131.893C78.5799 131.7 78.5427 131.366 78.5427 124.895V118.1H80.0068C81.5877 118.1 83.1942 118.975 83.1942 119.837C83.1942 120.131 83.3686 120.479 83.5817 120.61C83.8216 120.758 83.9695 120.067 83.9695 118.798V116.748H76.6045H69.2398V118.56ZM90.6559 116.843C85.9423 116.953 84.3368 117.315 86.2952 117.825C87.0335 118.018 87.0704 118.352 87.0704 124.859C87.0704 131.366 87.0335 131.7 86.2952 131.893C84.1694 132.446 86.1053 132.777 91.475 132.777H97.4304L97.9257 130.45C98.491 127.797 98.2629 127.14 97.3731 128.855C96.4645 130.606 95.3113 131.232 92.992 131.232H90.9467V128.528V125.825H92.8945C94.615 125.825 94.8848 125.937 95.2104 126.79C95.8027 128.342 95.9857 127.932 95.9857 125.052C95.9857 122.271 95.681 121.697 95.0115 123.217C94.705 123.914 94.2628 124.11 92.7879 124.204L90.9467 124.322V121.404V118.486H93.306C95.5718 118.486 95.683 118.532 96.1043 119.645C96.7676 121.395 97.1487 121.043 97.1487 118.679C97.1487 116.881 97.0444 116.568 96.4702 116.639C96.0974 116.685 93.4809 116.777 90.6559 116.843ZM-27.2786 117.3C-27.2786 117.498 -26.886 117.715 -26.4064 117.783C-25.549 117.904 -25.5323 118.01 -25.4234 124.086C-25.2974 131.116 -25.4195 132.005 -26.5106 132.005C-26.9332 132.005 -27.2786 132.178 -27.2786 132.391C-27.2786 132.603 -26.7193 132.777 -26.0354 132.777C-25.3253 132.777 -22.7077 133.755 -19.9304 135.059C-12.3275 138.626 -9.21879 138.884 -6.1492 136.198C-4.72004 134.948 -4.65531 134.013 -6.04959 134.757C-7.41403 135.484 -13.4338 134.92 -17.588 133.675L-21.2704 132.572L-21.3758 125.143C-21.4782 117.91 -21.4603 117.713 -20.6975 117.713C-20.2665 117.713 -19.9137 117.539 -19.9137 117.327C-19.9137 117.097 -21.3995 116.941 -23.5961 116.941C-25.6215 116.941 -27.2786 117.103 -27.2786 117.3ZM101.122 117.758L102.188 118.55V124.859V131.168L101.122 131.96L100.056 132.753L103.858 132.765C106.297 132.773 107.574 132.638 107.421 132.391C107.289 132.178 106.948 132.005 106.664 132.005C105.805 132.005 105.676 131.044 105.676 124.634V118.486H107.011C108.59 118.486 109.553 119.583 109.553 121.383C109.553 122.663 108.625 124.276 107.883 124.285C107.629 124.289 107.17 124.449 106.864 124.642C106.427 124.918 106.406 125.112 106.771 125.55C107.026 125.855 107.799 127.208 108.49 128.554C110.143 131.776 111.118 132.44 114.556 132.685C116.463 132.821 117.305 132.747 117.305 132.442C117.305 132.202 116.966 132.005 116.551 132.005C115.818 132.005 114.8 130.93 112.158 127.37L110.868 125.631L112.148 124.427C113.262 123.379 113.429 122.974 113.429 121.308C113.429 119.814 113.237 119.219 112.557 118.601C110.929 117.124 110.09 116.94 105.023 116.953L100.056 116.965L101.122 117.758ZM-22.8104 117.696C-22.9364 117.899 -23.2779 117.975 -23.5694 117.863C-23.8609 117.752 -24.2357 117.881 -24.4028 118.15C-24.8392 118.854 -24.8388 129.662 -24.4024 129.394C-24.2063 129.272 -24.1458 129.42 -24.2683 129.72C-25.0901 131.737 -25.092 131.75 -24.5342 131.414C-24.0927 131.149 -24.0989 131.227 -24.5652 131.811C-24.885 132.212 -24.9435 132.418 -24.695 132.269C-24.447 132.121 -24.1702 132.218 -24.0799 132.485C-23.952 132.864 -23.7725 132.852 -23.2628 132.433C-22.6926 131.964 -22.6403 131.976 -22.8534 132.529C-22.988 132.878 -22.9252 133.163 -22.7143 133.163C-22.479 133.163 -22.3069 130.641 -22.2685 126.638L-22.2065 120.113L-23.2442 119.299C-23.8151 118.852 -24.0597 118.486 -23.788 118.486C-23.5163 118.486 -23.0756 118.784 -22.8085 119.147C-22.3848 119.725 -22.3298 119.652 -22.3743 118.568C-22.4294 117.218 -22.467 117.143 -22.8104 117.696ZM-14.4343 124.259C-14.4308 127.988 -14.5498 131.35 -14.6986 131.731C-14.9219 132.301 -14.8072 132.392 -14.0501 132.248C-11.6349 131.79 -11.7449 132.174 -11.8256 124.467L-11.8992 117.407L-13.1702 117.443L-14.4412 117.479L-14.4343 124.259ZM17.0291 117.962C16.9105 118.271 17.1404 118.788 17.5404 119.112C17.94 119.437 18.0676 119.603 17.8234 119.482C17.5792 119.361 17.2974 119.479 17.1974 119.743C16.8803 120.58 16.8733 129.301 17.1896 129.301C17.3559 129.301 17.5171 129.734 17.5478 130.264C17.5784 130.794 17.4474 131.131 17.257 131.013C17.0663 130.896 16.9105 130.974 16.9105 131.186C16.9105 131.801 17.6563 132.096 18.6103 131.857C19.4312 131.652 19.487 131.447 19.439 128.827C19.4107 127.282 19.5285 125.724 19.7006 125.365C19.8727 125.006 19.8638 124.621 19.6809 124.508C19.4979 124.395 19.3994 123.258 19.4622 121.982C19.525 120.706 19.4045 119.555 19.1936 119.425C18.9502 119.275 18.9762 118.991 19.2649 118.645C19.5146 118.345 19.5665 118.097 19.3804 118.094C19.1948 118.09 19.2583 117.951 19.5227 117.784C19.8119 117.601 19.4545 117.465 18.6238 117.441C17.7482 117.416 17.1663 117.606 17.0291 117.962ZM24.4692 117.713C24.601 117.926 24.8832 118.1 25.0964 118.1C25.3095 118.1 25.3762 117.926 25.2444 117.713C25.1126 117.501 24.8305 117.327 24.6173 117.327C24.4041 117.327 24.3374 117.501 24.4692 117.713ZM35.7269 117.686C35.6041 117.884 35.6521 118.137 35.8332 118.249C36.014 118.361 36.1626 118.199 36.1626 117.889C36.1626 117.238 36.0401 117.181 35.7269 117.686ZM75.0903 117.95C75.3329 118.241 75.4866 121.106 75.4804 125.217L75.4698 132.005H76.6189H77.7675L77.7729 125.535C77.7755 121.977 77.8856 118.665 78.0169 118.176C78.2435 117.333 78.1625 117.291 76.4734 117.378C75.1025 117.449 74.7831 117.581 75.0903 117.95ZM82.3155 117.761C82.5786 118.025 82.8913 118.144 83.0105 118.025C83.1297 117.906 82.9145 117.69 82.5325 117.545C81.9801 117.336 81.9355 117.38 82.3155 117.761ZM87.5913 117.889C87.7102 118.198 87.8413 121.544 87.8823 125.324C87.9231 129.105 88.0335 131.981 88.1274 131.715C88.2213 131.449 88.4522 131.232 88.6411 131.232C88.8299 131.232 88.8836 131.493 88.7613 131.811C88.511 132.46 89.2723 132.579 90.1467 132.028C90.5256 131.789 90.5845 131.514 90.3319 131.165C89.9238 130.602 89.9222 129.842 90.3218 126.321C90.4926 124.815 90.4439 123.868 90.1869 123.71C89.965 123.573 89.7865 123.168 89.7896 122.808C89.7945 122.246 89.8474 122.236 90.166 122.735C90.5316 123.307 90.3569 119.294 89.9679 118.176C89.8714 117.899 89.965 117.779 90.1756 117.909C90.3866 118.039 90.5589 117.961 90.5589 117.736C90.5589 117.511 89.8428 117.327 88.9669 117.327C87.7332 117.327 87.4239 117.453 87.5913 117.889ZM95.4042 117.713C95.536 117.926 95.8079 118.1 96.0086 118.1C96.2093 118.1 96.3734 117.926 96.3734 117.713C96.3734 117.501 96.1012 117.327 95.769 117.327C95.4369 117.327 95.2726 117.501 95.4042 117.713ZM104.126 117.672C104.126 117.848 103.664 117.904 103.099 117.797C102.383 117.66 102.157 117.737 102.35 118.05C102.504 118.297 102.791 118.399 102.99 118.276C103.188 118.154 103.351 118.238 103.351 118.463C103.351 118.688 103.176 118.872 102.963 118.872C102.724 118.872 102.575 120.875 102.575 124.109C102.575 128.187 102.683 129.286 103.06 129.074C103.447 128.856 103.447 128.905 103.06 129.321C102.459 129.966 102.427 131.481 103.006 131.838C103.243 131.984 103.589 131.864 103.776 131.571C104.049 131.141 104.115 131.137 104.12 131.554C104.123 131.837 104.344 131.996 104.61 131.908C104.974 131.787 105.095 130.001 105.095 124.735C105.095 119.481 104.973 117.676 104.61 117.537C104.344 117.435 104.126 117.495 104.126 117.672ZM17.2981 117.871C17.2981 117.945 17.5598 118.221 17.8796 118.486C18.2149 118.763 18.461 118.801 18.461 118.574C18.461 118.359 18.1994 118.082 17.8796 117.96C17.5598 117.838 17.2981 117.798 17.2981 117.871ZM36.5305 118.622C36.41 119.078 36.4714 119.506 36.6673 119.573C36.8631 119.64 36.9273 119.944 36.8099 120.249C36.6925 120.554 36.7893 120.803 37.0253 120.803C37.2617 120.803 37.4608 120.586 37.468 120.32C37.4758 120.055 37.7031 120.234 37.9729 120.719C38.243 121.203 38.5856 121.479 38.7345 121.33C39.1179 120.948 39.0717 119.944 38.6821 120.184C38.5044 120.293 38.3589 120.138 38.3589 119.838C38.3589 119.537 38.5044 119.382 38.6821 119.491C38.8596 119.6 39.0051 119.332 39.0051 118.895C39.0051 118.457 38.7871 118.086 38.5206 118.07C38.2541 118.054 37.7464 117.984 37.3924 117.916C36.9982 117.84 36.6641 118.113 36.5305 118.622ZM109.07 117.97C109.338 118.077 109.469 118.308 109.361 118.483C109.253 118.657 109.556 118.727 110.037 118.639C110.516 118.55 110.717 118.572 110.483 118.687C110.219 118.818 110.127 119.629 110.241 120.814C110.366 122.105 110.252 122.944 109.892 123.386C109.541 123.818 109.523 123.943 109.839 123.754C110.168 123.557 110.244 123.661 110.082 124.083C109.951 124.422 109.756 124.611 109.648 124.503C109.539 124.395 109.158 124.463 108.801 124.653C107.904 125.131 108.202 127.629 109.221 128.172C109.63 128.39 109.916 128.854 109.856 129.203C109.796 129.552 110.138 130.036 110.616 130.279C111.095 130.522 111.371 130.837 111.23 130.977C111.089 131.117 111.134 131.245 111.329 131.262C111.716 131.294 112.322 131.436 113.816 131.845C114.708 132.088 114.669 131.988 113.332 130.592C112.533 129.758 111.878 128.876 111.878 128.631C111.878 128.387 111.715 128.087 111.515 127.964C111.311 127.839 111.227 128.157 111.324 128.689C111.419 129.211 111.323 129.744 111.11 129.876C110.879 130.018 110.827 129.847 110.979 129.451C111.153 129.001 111.089 128.877 110.781 129.067C110.532 129.221 110.328 129.162 110.328 128.937C110.328 128.713 110.531 128.528 110.78 128.528C111.029 128.528 111.117 128.414 110.977 128.274C110.837 128.134 110.882 127.828 111.078 127.593C111.31 127.314 111.073 126.847 110.396 126.245C109.825 125.739 109.271 125.336 109.165 125.35C108.735 125.404 108.754 125.112 109.199 124.838C109.515 124.643 109.572 124.707 109.372 125.031C109.207 125.297 109.776 125.111 110.637 124.617C112.064 123.799 112.429 123.121 111.445 123.121C111.232 123.121 111.182 123.322 111.334 123.567C111.507 123.845 111.44 123.908 111.157 123.733C110.562 123.367 111.03 122.624 111.695 122.878C112.457 123.17 113.009 122.288 112.867 121.005C112.717 119.642 110.683 117.701 109.449 117.744C108.973 117.761 108.802 117.862 109.07 117.97ZM-13.009 118.363C-12.7295 118.475 -12.395 118.461 -12.2663 118.333C-12.1376 118.204 -12.3663 118.113 -12.7748 118.13C-13.2264 118.148 -13.3183 118.24 -13.009 118.363ZM4.35693 119.413C3.62975 120.94 3.56657 121.576 4.14182 121.576C4.3674 121.576 4.42788 121.375 4.27592 121.13C4.10111 120.848 4.16971 120.789 4.46237 120.969C4.71744 121.126 4.83062 121.554 4.71393 121.919C4.59418 122.296 4.84148 122.947 5.28374 123.42C5.71324 123.88 6.04271 124.391 6.01519 124.557C5.82061 125.733 6.11131 126.552 6.65012 126.346C7.02768 126.202 7.16954 125.82 7.04122 125.296C6.93037 124.843 6.94006 124.691 7.06294 124.958C7.18582 125.225 7.47265 125.328 7.70058 125.188C7.93703 125.042 8.00253 125.114 7.85292 125.355C7.70912 125.587 7.90021 125.975 8.27775 126.216C8.91928 126.627 8.91964 126.641 8.2859 126.445C7.18737 126.105 6.33537 126.58 6.87727 127.231C7.23079 127.655 7.21219 127.743 6.79005 127.635C6.49352 127.558 6.37957 127.568 6.53694 127.657C7.02224 127.929 8.38938 131.295 8.16302 131.66C8.04556 131.85 8.13433 132.005 8.35991 132.005C8.58552 132.005 8.77042 131.831 8.77042 131.618C8.77042 131.406 8.95532 131.232 9.1809 131.232C9.40651 131.232 9.46582 131.449 9.31271 131.715C9.15921 131.981 9.172 132.073 9.34062 131.921C9.50963 131.77 9.96276 131.814 10.3484 132.019C10.8151 132.268 11.1341 132.256 11.3039 131.982C11.6741 131.385 10.681 129.229 10.1321 129.439C9.82708 129.555 9.72515 129.312 9.8364 128.731C10.0345 127.7 9.22899 127.023 8.73322 127.803C8.54678 128.096 8.39211 128.153 8.3886 127.93C8.38551 127.707 8.56886 127.339 8.79601 127.112C9.08904 126.82 8.97625 126.319 8.40994 125.394C7.97036 124.675 7.60987 123.797 7.6091 123.443C7.60833 123.089 7.43816 122.741 7.23117 122.67C7.02419 122.599 6.80091 122.194 6.7354 121.769C6.66988 121.344 6.51444 120.823 6.39001 120.61C6.26597 120.398 6.04971 119.746 5.90939 119.162C5.5706 117.748 5.11435 117.822 4.35693 119.413ZM37.1615 118.742C36.8938 118.85 36.773 119.097 36.8938 119.291C37.234 119.84 37.7131 119.708 37.7131 119.065C37.7131 118.746 37.6984 118.5 37.6806 118.516C37.6628 118.533 37.4293 118.635 37.1615 118.742ZM45.6955 118.964C44.9873 119.85 43.6589 123.198 43.8764 123.549C43.9938 123.738 43.905 123.893 43.6793 123.893C43.4538 123.893 43.2688 124.067 43.2688 124.28C43.2688 125.171 44.0302 124.566 44.4845 123.314C44.9494 122.033 45.5946 121.485 45.5946 122.371C45.5946 122.596 45.7473 122.686 45.9338 122.571C46.1204 122.456 46.2731 122.791 46.2731 123.315C46.2731 123.839 46.5594 124.703 46.909 125.235C47.2591 125.767 47.5269 126.319 47.5045 126.462C47.4815 126.604 47.7243 126.866 48.0434 127.044C48.3666 127.224 48.5403 127.685 48.4355 128.084C48.3323 128.477 48.5232 129.074 48.8591 129.408C49.1958 129.744 49.4708 130.204 49.4708 130.432C49.4708 131.412 50.0977 130.717 50.5686 129.214C50.9449 128.012 50.9628 127.543 50.6356 127.434C50.3769 127.349 50.526 127.054 50.9942 126.727C51.778 126.18 52.1761 124.387 51.4091 124.859C51.1957 124.99 51.0213 125.435 51.0213 125.847C51.0213 126.26 50.7597 126.597 50.4398 126.597C50.1202 126.597 49.8586 126.413 49.8586 126.188C49.8586 125.963 49.686 125.885 49.4752 126.015C49.2484 126.154 49.1953 125.983 49.3444 125.596C49.5046 125.18 49.3258 124.743 48.8553 124.4C48.4479 124.103 48.177 123.776 48.2534 123.672C48.3721 123.513 48.2304 122.92 47.7305 121.479C47.675 121.32 47.6079 121.005 47.5813 120.781C47.5545 120.556 47.3747 120.469 47.1812 120.588C46.9882 120.707 46.9129 120.488 47.0145 120.101C47.2614 119.16 46.2411 118.281 45.6955 118.964ZM61.9718 118.742C61.7055 118.849 61.4873 119.188 61.4873 119.497C61.4873 119.804 61.0417 120.963 60.4971 122.071C59.6845 123.726 59.6478 123.914 60.2946 123.121C60.7278 122.59 61.0864 122.025 61.091 121.865C61.0956 121.706 61.2778 121.576 61.4953 121.576C61.8799 121.576 62.053 121.91 63.0543 124.582C63.3161 125.279 63.6082 125.771 63.7044 125.676C64.0014 125.379 66.1388 126.263 66.1388 126.682C66.1388 126.915 65.8988 126.879 65.5573 126.597C65.1907 126.294 64.9758 126.268 64.9758 126.527C64.9758 126.753 65.1502 127.045 65.3635 127.176C65.5766 127.308 65.751 127.617 65.751 127.865C65.751 128.112 65.4793 127.928 65.1476 127.456C63.9433 125.742 63.521 126.927 64.6123 128.959C65.0614 129.796 65.0968 129.801 65.6083 129.103C66.1163 128.411 66.1388 128.416 66.1388 129.227C66.1388 129.693 65.9644 130.073 65.751 130.073C65.5379 130.073 65.3635 130.508 65.3635 131.039C65.3635 132.266 66.4065 132.33 66.9372 131.135L67.3232 130.266L67.157 131.127C67.0278 131.796 67.1534 131.963 67.7174 131.877C68.1175 131.817 68.5801 131.619 68.7452 131.438C68.9106 131.256 68.7981 131.251 68.4955 131.427C68.0853 131.664 68.0081 131.581 68.1928 131.102C68.3288 130.749 68.2764 130.46 68.0768 130.46C67.8771 130.46 67.8141 130.199 67.9364 129.88C68.0595 129.561 67.981 129.301 67.7628 129.301C67.5445 129.301 67.2783 129.518 67.1704 129.784C67.0538 130.072 66.9628 129.994 66.9445 129.59C66.9279 129.219 67.0954 128.915 67.3167 128.915C67.5381 128.915 67.3699 128.541 66.9426 128.084C66.5152 127.626 66.2585 127.102 66.3725 126.919C66.6194 126.521 64.9157 122.773 64.4779 122.75C64.3102 122.742 64.3416 123.048 64.5475 123.431C65.1816 124.612 64.4474 125.201 63.601 124.192C63.1959 123.709 63.1129 123.531 63.4165 123.797C64.1897 124.474 64.7841 124.4 64.2005 123.7C63.8649 123.297 63.8393 122.974 64.1172 122.638C64.3956 122.301 64.3522 121.804 63.9745 120.996C63.5138 120.01 63.4642 119.981 63.6417 120.803C63.8179 121.62 63.7846 121.665 63.426 121.096C63.1931 120.726 63.0311 120.204 63.0659 119.937C63.2444 118.574 63.014 118.322 61.9718 118.742ZM4.67944 119.292C4.48368 119.608 4.54844 119.664 4.87597 119.463C5.22521 119.247 5.30041 119.368 5.13839 119.886C5.01397 120.284 5.06319 120.85 5.2477 121.143C5.47602 121.506 5.56477 121.297 5.52409 120.494C5.45507 119.124 5.09846 118.617 4.67944 119.292ZM110.859 119.444C110.727 119.785 110.729 120.173 110.861 120.305C110.994 120.437 111.115 120.213 111.13 119.806C111.156 119.098 111.173 119.1 111.491 119.838C111.762 120.467 111.829 120.49 111.851 119.957C111.888 119.061 111.153 118.68 110.859 119.444ZM45.5946 119.815C45.5946 120.121 45.7527 120.469 45.9462 120.588C46.1392 120.707 46.2063 120.456 46.0946 120.031C45.8577 119.129 45.5946 119.015 45.5946 119.815ZM61.9718 120.265C61.9718 120.909 62.0812 121.096 62.2749 120.783C62.4418 120.514 62.4885 120.061 62.3789 119.776C62.083 119.008 61.9718 119.141 61.9718 120.265ZM-13.421 121.059C-13.1543 121.166 -12.7183 121.166 -12.452 121.059C-12.1853 120.952 -12.4035 120.864 -12.9365 120.864C-13.4695 120.864 -13.6873 120.952 -13.421 121.059ZM37.298 121.129C37.151 121.366 37.2505 121.954 37.5189 122.437C37.7872 122.919 37.9662 123.455 37.9167 123.627C37.8669 123.799 38.0759 124.408 38.3813 124.979C39.1555 126.428 39.9826 128.665 39.8725 129.011C39.8219 129.171 39.9548 129.301 40.1679 129.301C40.7393 129.301 40.64 130.548 39.9333 132.247C39.2884 133.798 39.5211 133.824 40.4029 132.301C41.433 130.521 42.5986 127.315 41.7976 128.465C41.5163 128.868 41.3951 128.816 41.24 128.224C41.0842 127.631 41.1998 127.509 41.7736 127.658C42.3244 127.802 42.4456 127.694 42.265 127.225C42.1327 126.882 41.8809 126.69 41.7044 126.799C41.5285 126.907 41.2584 126.793 41.1041 126.544C40.9289 126.261 40.9913 126.195 41.2707 126.367C41.8773 126.741 41.8146 126.176 41.1528 125.306C40.8551 124.915 40.4986 123.929 40.3608 123.115C40.0946 121.546 39.1377 120.782 38.7376 121.821C38.5387 122.337 38.4228 122.296 38.032 121.569C37.7356 121.017 37.4678 120.856 37.298 121.129ZM3.02702 122.432C2.48434 122.973 2.42813 123.507 2.91461 123.507C3.26965 123.507 3.85458 122.342 3.61775 122.107C3.54525 122.034 3.27935 122.181 3.02702 122.432ZM5.4923 122.322C5.23452 122.737 5.9931 123.313 6.34118 122.966C6.46911 122.839 6.32683 122.732 6.02489 122.729C5.57253 122.724 5.57834 122.656 6.05706 122.348C6.40632 122.124 6.45438 121.972 6.17684 121.968C5.92293 121.965 5.61477 122.124 5.4923 122.322ZM46.8582 122.922C46.5489 123.272 46.5164 123.552 46.7677 123.706C46.9823 123.838 47.0754 124.079 46.9746 124.242C46.8742 124.404 47.0514 124.537 47.3688 124.537C47.7661 124.537 47.8213 124.412 47.5455 124.138C47.0352 123.629 47.0218 122.999 47.5284 123.311C47.748 123.446 47.813 123.291 47.6809 122.948C47.4074 122.238 47.4603 122.24 46.8582 122.922ZM3.24563 124.677L2.31184 126.79L3.2154 126.912C3.71233 126.979 4.51472 126.979 4.99885 126.912L5.87835 126.79L5.0287 124.677L4.17903 122.563L3.24563 124.677ZM60.4569 124.86L59.6205 126.983H61.3549C62.9746 126.983 63.0721 126.926 62.8236 126.114C62.4441 124.876 61.5482 122.735 61.4101 122.735C61.3456 122.736 60.9171 123.692 60.4569 124.86ZM39.6346 124.101C39.5015 124.446 39.404 124.932 39.4171 125.18C39.4305 125.428 39.6091 125.215 39.8131 124.706C40.0174 124.197 40.1152 123.712 40.0303 123.627C39.9455 123.543 39.7672 123.756 39.6346 124.101ZM89.8593 124.859C89.867 125.496 89.9539 125.71 90.0522 125.334C90.1508 124.959 90.1443 124.437 90.038 124.176C89.9318 123.914 89.8515 124.222 89.8593 124.859ZM58.6809 125.898C58.3432 126.886 58.1675 127.795 58.2908 127.918C58.4144 128.041 58.3117 128.142 58.0633 128.142C57.8146 128.142 57.611 128.343 57.611 128.588C57.611 128.844 57.9346 128.742 58.3708 128.349C58.7885 127.972 59.1092 127.554 59.0823 127.42C59.056 127.286 59.1672 126.706 59.3298 126.131C59.8604 124.251 59.3114 124.054 58.6809 125.898ZM1.98701 125.052C2.1188 125.264 2.30331 125.438 2.39751 125.438C2.49169 125.438 2.56845 125.264 2.56845 125.052C2.56845 124.84 2.38354 124.666 2.15795 124.666C1.93235 124.666 1.85522 124.84 1.98701 125.052ZM42.4936 125.825C42.1626 126.441 42.199 126.597 42.6739 126.597C43.0103 126.597 43.2688 126.261 43.2688 125.825C43.2688 125.4 43.1878 125.052 43.0888 125.052C42.9897 125.052 42.7219 125.4 42.4936 125.825ZM1.48891 125.62C1.64125 125.789 1.56256 126.294 1.31371 126.744C0.550095 128.126 0.594666 128.557 1.44666 128.027C1.85483 127.773 2.01376 127.507 1.80018 127.436C1.54202 127.351 1.54086 127.067 1.79747 126.589C2.0719 126.078 2.04322 125.791 1.69746 125.593C1.43039 125.44 1.33657 125.452 1.48891 125.62ZM40.245 127.765C40.69 128.832 41.1206 129.639 41.2021 129.558C41.3843 129.376 39.8807 125.825 39.6217 125.825C39.5195 125.825 39.7997 126.698 40.245 127.765ZM108.884 126.983C108.916 127.408 109.098 127.756 109.289 127.756C109.48 127.756 109.532 127.486 109.405 127.156C109.272 126.813 109.337 126.658 109.557 126.793C109.768 126.923 109.94 127.308 109.94 127.65C109.94 127.992 110.043 128.168 110.169 128.042C110.559 127.654 109.918 126.211 109.357 126.211C109.064 126.211 108.852 126.558 108.884 126.983ZM49.2618 127.353C50.1062 128.283 50.2997 128.344 50.01 127.593C49.8937 127.29 49.5167 126.935 49.1721 126.803C48.6574 126.607 48.6731 126.705 49.2618 127.353ZM88.6965 129.88C88.7043 130.518 88.7909 130.731 88.8895 130.356C88.988 129.98 88.9813 129.458 88.875 129.197C88.769 128.935 88.6888 129.243 88.6965 129.88ZM104.467 130.158C104.646 131.231 104.7 131.285 104.822 130.512C104.902 130.009 104.807 129.439 104.611 129.244C104.396 129.03 104.34 129.39 104.467 130.158ZM-12.4876 130.46C-12.4876 130.991 -12.3996 131.208 -12.2923 130.942C-12.1845 130.677 -12.1845 130.242 -12.2923 129.977C-12.3996 129.711 -12.4876 129.929 -12.4876 130.46ZM18.0734 130.028C18.0734 130.24 18.2478 130.521 18.461 130.653C18.6742 130.784 18.8486 130.717 18.8486 130.505C18.8486 130.293 18.6742 130.012 18.461 129.88C18.2478 129.749 18.0734 129.815 18.0734 130.028ZM111.982 130.346C112.014 130.815 112.114 131.125 112.204 131.036C112.294 130.946 112.737 131.062 113.189 131.293C113.892 131.652 113.929 131.637 113.447 131.183C113.137 130.891 112.667 130.392 112.403 130.073C111.992 129.577 111.932 129.617 111.982 130.346ZM-23.4023 130.675C-23.4023 131.006 -23.2252 131.168 -23.0085 131.035C-22.7918 130.901 -22.7147 130.631 -22.8376 130.433C-23.1698 129.897 -23.4023 129.997 -23.4023 130.675ZM8.5766 130.46C8.44482 130.672 8.52196 130.846 8.74754 130.846C8.97315 130.846 9.15805 130.672 9.15805 130.46C9.15805 130.247 9.0813 130.073 8.98711 130.073C8.89291 130.073 8.7084 130.247 8.5766 130.46ZM-0.920166 131.016C-0.920166 131.322 -0.763947 131.669 -0.573235 131.786C-0.173985 132.032 0.307053 131.039 -0.0425797 130.691C-0.4585 130.276 -0.920166 130.447 -0.920166 131.016ZM56.6346 130.793C56.8126 131.104 56.7171 131.456 56.4008 131.655C56.0497 131.877 56.0249 131.995 56.3283 131.999C57.054 132.008 57.3611 131.211 56.8226 130.716C56.4449 130.368 56.4024 130.385 56.6346 130.793ZM-6.34767 131.443C-6.90895 131.753 -7.07176 131.981 -6.73452 131.985C-6.04221 131.994 -4.93517 131.351 -5.19566 131.092C-5.29643 130.991 -5.8147 131.149 -6.34767 131.443ZM96.2333 131.114C95.7971 131.549 95.9678 132.005 96.5672 132.005C96.8871 132.005 97.1487 131.841 97.1487 131.641C97.1487 131.154 96.5432 130.805 96.2333 131.114ZM-20.2025 134.032C-20.1126 134.298 -19.6943 134.515 -19.273 134.515C-18.8512 134.515 -18.1904 134.829 -17.8035 135.213C-17.4167 135.598 -16.8612 135.82 -16.5689 135.708C-16.2766 135.597 -16.0375 135.668 -16.0375 135.867C-16.0375 136.066 -15.7471 136.118 -15.3925 135.983C-14.9901 135.828 -14.8428 135.89 -15.001 136.144C-15.2905 136.612 -13.6803 137.02 -10.836 137.2L-8.92923 137.32L-9.86691 136.609C-10.6875 135.987 -13.0051 135.275 -15.456 134.893C-15.8824 134.826 -16.9945 134.496 -17.9275 134.16C-19.9742 133.423 -20.4172 133.398 -20.2025 134.032ZM-14.1718 136.131C-13.8924 136.243 -13.5579 136.229 -13.4292 136.1C-13.3005 135.972 -13.5292 135.881 -13.9377 135.898C-14.3893 135.916 -14.4812 136.008 -14.1718 136.131ZM-8.67264 136.494C-8.67264 137.007 -8.56759 137.034 -8.09119 136.64C-7.77142 136.375 -7.50977 136.093 -7.50977 136.013C-7.50977 135.933 -7.77142 135.867 -8.09119 135.867C-8.41099 135.867 -8.67264 136.149 -8.67264 136.494ZM-34.162 145.909C-34.6434 146.11 -35.2458 146.729 -35.5004 147.286C-36.2168 148.853 -35.2829 150.15 -32.8991 150.9C-31.2532 151.418 -30.9609 151.656 -30.9609 152.476C-30.9609 153.275 -31.1698 153.462 -32.1724 153.559C-33.6096 153.698 -34.6434 152.83 -34.6434 151.483C-34.6434 150.906 -34.8676 150.545 -35.2249 150.545C-35.6771 150.545 -35.8064 151.059 -35.8064 152.862C-35.8064 154.665 -35.6771 155.18 -35.2249 155.18C-34.905 155.18 -34.6434 155.015 -34.6434 154.813C-34.6434 154.592 -34.1795 154.608 -33.4685 154.856C-30.5705 155.862 -27.9043 152.63 -29.8582 150.478C-30.2419 150.056 -30.3198 149.772 -30.052 149.772C-29.7734 149.772 -29.6044 149.045 -29.6044 147.845C-29.6044 146.099 -29.6862 145.92 -30.4764 145.935C-30.956 145.945 -31.7846 145.861 -32.3176 145.749C-32.8506 145.637 -33.6806 145.709 -34.162 145.909ZM85.6064 146.125C85.1322 146.455 84.7447 147.064 84.7447 147.477C84.7447 147.889 84.4934 148.227 84.1862 148.227C83.2574 148.227 83.0577 149.036 83.9302 149.264C84.6304 149.446 84.7447 149.767 84.7447 151.555C84.7447 153.405 84.6554 153.635 83.9372 153.635C83.463 153.635 83.1965 153.834 83.2909 154.117C83.3905 154.415 84.1717 154.6 85.3259 154.6C86.4804 154.6 87.2614 154.415 87.3612 154.117C87.4556 153.834 87.1891 153.635 86.7149 153.635C85.9946 153.635 85.9074 153.405 85.9074 151.51C85.9074 149.643 86.0013 149.386 86.6827 149.386C87.7038 149.386 87.6971 148.217 86.6747 147.951C86.056 147.789 85.9851 147.634 86.3383 147.21C86.7152 146.757 86.8586 146.774 87.259 147.32C87.8075 148.067 89.0084 147.78 89.0084 146.901C89.0084 146.295 87.8769 145.523 86.9881 145.523C86.7018 145.523 86.08 145.794 85.6064 146.125ZM-28.4414 146.489C-28.4414 146.808 -28.1798 147.068 -27.8599 147.068C-27.3885 147.068 -27.2786 147.69 -27.2786 150.351C-27.2786 153.012 -27.3885 153.635 -27.8599 153.635C-28.1798 153.635 -28.4414 153.895 -28.4414 154.214C-28.4414 154.652 -27.9677 154.793 -26.5034 154.793C-25.0389 154.793 -24.5652 154.652 -24.5652 154.214C-24.5652 153.895 -24.8269 153.635 -25.1466 153.635C-25.849 153.635 -25.9285 152.249 -25.2416 151.986C-24.9738 151.884 -24.4423 152.213 -24.0605 152.717C-23.6787 153.222 -23.5488 153.635 -23.7717 153.635C-23.995 153.635 -24.1776 153.887 -24.1776 154.196C-24.1776 154.672 -22.9542 154.746 -16.1666 154.68C-10.6507 154.625 -8.1102 154.465 -8.01057 154.166C-7.93072 153.928 -8.19276 153.648 -8.59279 153.544C-9.16103 153.395 -9.30602 153.027 -9.25757 151.853C-9.17034 149.747 -9.75566 148.254 -10.7464 148.055C-12.4775 147.708 -16.165 148.029 -16.3367 148.542C-16.4305 148.823 -16.1406 149.146 -15.6905 149.264C-14.9913 149.446 -14.8746 149.767 -14.8746 151.51C-14.8746 153.631 -15.2793 154.071 -16.9096 153.723C-17.4752 153.602 -17.588 153.14 -17.588 150.947C-17.588 148.386 -17.6159 148.312 -18.6516 148.115C-19.2369 148.003 -19.8474 147.993 -20.0083 148.092C-20.5331 148.416 -20.3168 149.386 -19.7199 149.386C-19.2734 149.386 -19.1385 149.879 -19.1385 151.51C-19.1385 153.629 -19.1416 153.635 -20.3424 153.635C-21.1591 153.635 -21.7871 153.329 -22.2949 152.687C-22.7666 152.089 -23.2884 151.817 -23.7074 151.95C-24.2256 152.116 -24.2539 152.079 -23.8372 151.783C-23.5434 151.574 -23.4085 151.233 -23.5372 151.025C-23.8322 150.55 -22.6848 149.512 -21.658 149.324C-21.2316 149.246 -20.8828 148.924 -20.8828 148.608C-20.8828 148.196 -21.2433 148.062 -22.1608 148.134C-22.8635 148.19 -23.762 148.062 -24.157 147.852C-24.7098 147.557 -24.9338 147.62 -25.1288 148.128C-25.2722 148.499 -25.1552 148.959 -24.8613 149.183C-24.433 149.508 -24.464 149.7 -25.0338 150.255C-25.6994 150.903 -25.7281 150.827 -25.7281 148.42V145.909H-27.0846C-28.0322 145.909 -28.4414 146.084 -28.4414 146.489ZM-19.385 146.486C-19.5191 146.835 -19.4431 147.305 -19.216 147.532C-18.6253 148.121 -17.5066 147.583 -17.6609 146.785C-17.8326 145.895 -19.0745 145.68 -19.385 146.486ZM22.9834 146.167C22.4919 146.657 22.728 147.068 23.5001 147.068C24.2145 147.068 24.2754 147.326 24.2754 150.351C24.2754 153.421 24.2227 153.635 23.4679 153.635C22.9946 153.635 22.7264 153.835 22.8202 154.117C22.9943 154.641 27.6594 155 29.2215 154.61C30.5491 154.277 31.637 152.218 31.6386 150.032C31.6399 148.486 31.4472 147.975 30.5071 147.039C29.446 145.981 29.18 145.909 26.3081 145.909C24.6215 145.909 23.1253 146.025 22.9834 146.167ZM46.6281 146.461C46.3327 147.228 47.4286 148.099 47.9882 147.542C48.5235 147.008 48.1228 145.909 47.3925 145.909C47.0888 145.909 46.7452 146.158 46.6281 146.461ZM75.4417 146.332C75.4417 146.564 75.7905 146.845 76.217 146.956C77.5686 147.308 77.1155 148.086 75.6577 147.916C73.7733 147.697 72.3407 149.149 72.3407 151.278C72.3407 153.166 73.6461 154.874 75.0646 154.843C75.5916 154.832 76.8514 154.817 77.8642 154.811C79.2419 154.802 79.7055 154.653 79.7055 154.217C79.7055 153.897 79.4439 153.635 79.1242 153.635C78.6462 153.635 78.5427 152.948 78.5427 149.772V145.909H76.9922C76.1285 145.909 75.4417 146.097 75.4417 146.332ZM54.1223 147.261C53.8568 147.58 53.3455 147.841 52.9861 147.841C51.9204 147.841 50.8601 148.845 50.8136 149.898C50.7899 150.438 50.5531 151.141 50.2876 151.46C49.9321 151.887 49.9143 152.245 50.2203 152.814C50.7097 153.725 50.3224 154.069 49.1507 153.764C48.3901 153.566 48.3081 153.289 48.3081 150.931C48.3081 148.468 48.2534 148.307 47.3641 148.138C45.9795 147.874 45.2071 148.48 46.0791 149.146C46.9846 149.837 47.0664 153.635 46.1761 153.635C45.8562 153.635 45.5946 153.912 45.5946 154.25C45.5946 154.754 45.978 154.841 47.7096 154.733C49.6125 154.613 49.8454 154.684 50.0348 155.439C50.4282 157.005 54.3731 157.573 55.9267 156.289C56.6317 155.706 56.5853 154.213 55.8392 153.469C55.5038 153.135 54.5882 152.859 53.8042 152.856C53.0197 152.853 52.1165 152.664 51.7966 152.437C51.3554 152.124 51.527 152.078 52.5068 152.247C54.8937 152.658 56.6276 150.885 55.5067 149.18C54.7634 148.05 54.6925 147.414 55.4202 148.406C55.7076 148.797 56.1176 149.01 56.3307 148.879C56.9006 148.528 58.4766 150.139 58.2189 150.809C58.0979 151.123 57.9985 151.888 57.9985 152.508C57.9985 153.278 57.8043 153.635 57.385 153.635C57.0473 153.635 56.8435 153.852 56.9318 154.117C57.044 154.453 58.2962 154.629 61.0345 154.695C64.3169 154.774 64.9758 154.694 64.9758 154.212C64.9758 153.895 64.7142 153.635 64.3945 153.635C63.9441 153.635 63.813 153.126 63.813 151.377C63.813 148.277 63.2475 147.802 59.824 148.027C57.5486 148.177 57.1854 148.105 56.8275 147.44C56.3451 146.541 54.8065 146.44 54.1223 147.261ZM-33.9938 147.61C-34.3062 148.421 -33.4448 149.281 -32.0269 149.574C-30.8853 149.809 -30.7671 149.747 -30.7671 148.914C-30.7671 148.409 -30.9766 147.787 -31.2323 147.532C-31.8716 146.895 -33.7386 146.948 -33.9938 147.61ZM26.0065 147.542C25.8863 147.855 25.8398 149.31 25.9038 150.776L26.0197 153.441L27.541 153.391C29.4124 153.33 30.0896 152.518 30.0896 150.338C30.0896 148.491 29.3304 147.593 27.4538 147.219C26.5617 147.041 26.1654 147.13 26.0065 147.542ZM-6.0926 148.278C-6.48567 148.506 -7.04501 149.259 -7.33573 149.952C-8.51836 152.773 -6.27791 155.654 -3.61958 154.73C-2.48462 154.336 -1.44966 152.799 -1.86635 152.126C-2.3032 151.422 -2.85635 151.648 -3.25561 152.694C-3.55252 153.472 -3.85679 153.66 -4.66965 153.564C-6.07438 153.398 -6.63334 151.776 -5.83562 150.182C-5.4449 149.402 -5.398 148.993 -5.68831 148.896C-5.92246 148.819 -5.80848 148.639 -5.4352 148.496C-5.0596 148.352 -4.85378 148.394 -4.9747 148.589C-5.09525 148.783 -4.88943 149 -4.51809 149.071C-4.09404 149.152 -3.83935 149.559 -3.83471 150.162C-3.82385 151.558 -2.32182 151.512 -2.15901 150.111C-1.94078 148.237 -4.20255 147.184 -6.0926 148.278ZM0.145802 148.258C-0.227478 148.475 -0.532539 149.089 -0.532539 149.625C-0.532539 150.413 -0.367027 150.575 0.339611 150.475C0.938488 150.39 1.17378 150.13 1.09083 149.646C0.998188 149.105 1.17842 148.969 1.86219 149.066C2.35292 149.136 2.81188 149.493 2.88203 149.86C2.9805 150.375 2.64442 150.585 1.40596 150.783C-0.570915 151.097 -1.60471 152.36 -0.924038 153.627C-0.426716 154.553 1.25208 155.32 1.90367 154.919C2.14167 154.772 4.07436 154.64 6.19893 154.626C8.92431 154.608 10.1089 154.458 10.2232 154.117C10.3186 153.834 10.0523 153.635 9.57784 153.635C8.88477 153.635 8.77042 153.399 8.77042 151.97C8.77042 149.945 9.51737 148.758 10.5446 149.151C11.121 149.371 11.1601 149.494 10.738 149.754C10.0128 150.201 10.5361 151.406 11.3857 151.246C12.1947 151.093 12.5234 149.203 11.8761 148.426C11.5857 148.077 10.5911 147.904 8.93711 147.913C6.33847 147.928 5.47951 148.396 6.5792 149.197C7.45173 149.833 7.5025 153.635 6.63848 153.635C6.31561 153.635 6.05706 153.291 6.05706 152.862C6.05706 151.802 4.98799 151.883 4.78024 152.959C4.68759 153.437 4.58834 152.867 4.55927 151.693C4.49261 148.995 3.73944 147.837 2.06182 147.852C1.38115 147.859 0.519085 148.041 0.145802 148.258ZM13.7801 148.838C12.5335 150.16 12.4664 152.854 13.6506 154.034C15.1581 155.537 18.8486 154.698 18.8486 152.853C18.8486 151.862 17.8323 151.868 17.2981 152.862C16.8008 153.787 15.6461 153.864 14.8061 153.028C13.7588 151.984 14.1219 151.703 16.5229 151.703C18.8169 151.703 18.8486 151.688 18.8486 150.612C18.8486 148.098 15.5616 146.948 13.7801 148.838ZM33.549 148.838C31.7173 150.781 32.5996 154.582 34.9351 154.807C36.9172 154.999 38.6174 154.012 38.6174 152.669C38.6174 151.827 37.5519 151.959 37.0669 152.862C36.5321 153.858 34.8969 153.874 34.3671 152.888C33.7505 151.739 33.809 151.703 36.2916 151.703C38.5856 151.703 38.6174 151.688 38.6174 150.612C38.6174 148.098 35.3304 146.948 33.549 148.838ZM40.4145 148.555C39.067 150.039 39.8544 151.579 42.2052 152.058C43.7601 152.375 43.8896 153.392 42.3969 153.564C41.5525 153.66 41.2524 153.48 40.9529 152.694C40.745 152.149 40.2987 151.703 39.9612 151.703C39.4795 151.703 39.3738 152.055 39.4674 153.345L39.5866 154.986L41.6778 154.899C43.8803 154.807 45.2071 154.041 45.2071 152.862C45.2071 151.952 44.0291 150.986 42.5651 150.694C41.2498 150.432 40.906 149.524 41.9681 149.118C42.3922 148.956 42.8576 149.219 43.3584 149.905C44.2817 151.168 44.8193 150.916 44.8193 149.221C44.8193 147.954 44.8013 147.941 42.934 147.899C41.5687 147.869 40.8737 148.05 40.4145 148.555ZM66.3671 149.029C64.0886 151.728 65.7972 155.07 69.3365 154.838C70.1863 154.782 71.5655 153.44 71.5655 152.669C71.5655 151.803 70.137 151.968 69.9025 152.862C69.5439 154.228 66.914 153.65 66.914 152.205C66.914 151.849 67.5899 151.703 69.2398 151.703C71.4267 151.703 71.5655 151.649 71.5655 150.79C71.5655 150.287 71.2038 149.418 70.7619 148.859C69.596 147.381 67.6965 147.455 66.3671 149.029ZM89.027 148.521C87.8653 149.458 87.525 152.124 88.3973 153.451C89.2762 154.787 90.6188 155.253 92.1032 154.738C93.5516 154.235 94.0477 153.382 94.0477 151.395C94.0477 148.375 91.2163 146.754 89.027 148.521ZM95.0076 148.172C94.5969 148.581 94.8601 149.386 95.4042 149.386C95.8507 149.386 95.9857 149.879 95.9857 151.51C95.9857 153.141 95.8507 153.635 95.4042 153.635C95.0845 153.635 94.8229 153.895 94.8229 154.214C94.8229 154.652 95.2966 154.793 96.7609 154.793C98.2255 154.793 98.6992 154.652 98.6992 154.214C98.6992 153.895 98.4375 153.635 98.1176 153.635C97.3896 153.635 97.2931 150.169 98.0013 149.463C98.8059 148.661 99.4308 148.938 99.3534 150.062C99.2964 150.891 99.4507 151.124 100.056 151.124C100.598 151.124 100.861 150.833 100.931 150.158C101.11 148.442 100.506 148.036 97.735 148.011C96.3365 147.998 95.1093 148.07 95.0076 148.172ZM104.426 148.28C103.919 148.593 104.39 149.386 105.084 149.386C105.373 149.386 106.087 150.603 106.678 152.105C107.693 154.682 107.714 154.859 107.078 155.485C106.446 156.108 106.386 156.107 106.023 155.469C105.811 155.098 105.286 154.793 104.856 154.793C104.232 154.793 104.099 155.007 104.197 155.856C104.306 156.801 104.496 156.93 105.923 157.034C107.917 157.18 108.579 156.443 110.174 152.307C110.792 150.706 111.505 149.393 111.758 149.391C112.282 149.385 112.832 148.662 112.537 148.368C112.192 148.025 109.151 147.937 108.948 148.265C108.84 148.439 108.941 148.893 109.174 149.274C109.487 149.786 109.457 150.361 109.057 151.494L108.517 153.022L107.918 151.27C107.37 149.667 107.373 149.482 107.951 149.111C108.299 148.887 108.464 148.579 108.319 148.427C107.978 148.071 104.951 147.957 104.426 148.28ZM113.835 148.521C112.673 149.458 112.333 152.124 113.205 153.451C114.084 154.787 115.427 155.253 116.911 154.738C118.372 154.23 118.856 153.382 118.856 151.325C118.856 148.438 115.949 146.815 113.835 148.521ZM119.386 148.309C119.242 148.541 119.413 148.941 119.765 149.197C120.198 149.513 120.406 150.232 120.406 151.413C120.406 153.491 121.35 154.874 122.745 154.843C123.27 154.832 124.529 154.817 125.542 154.811C126.92 154.802 127.383 154.653 127.383 154.217C127.383 153.897 127.122 153.635 126.802 153.635C126.341 153.635 126.22 153.082 126.22 150.976C126.22 148.465 126.168 148.307 125.277 148.138C123.875 147.871 123.122 148.482 124.014 149.162C124.556 149.576 124.688 150.123 124.596 151.569C124.486 153.284 124.387 153.451 123.424 153.562C122.233 153.699 122.036 153.246 121.864 149.972C121.77 148.18 121.69 148.041 120.705 147.968C120.123 147.924 119.53 148.078 119.386 148.309ZM-23.5923 149.006C-23.4581 149.222 -23.1864 149.298 -22.988 149.176C-22.4503 148.845 -22.5503 148.613 -23.2314 148.613C-23.5636 148.613 -23.726 148.79 -23.5923 149.006ZM7.44164 148.903C7.63431 149.062 7.92268 149.367 8.08163 149.579C8.24674 149.8 8.37349 149.675 8.37697 149.289C8.38009 148.913 8.09595 148.613 7.73663 148.613C7.38156 148.613 7.24862 148.743 7.44164 148.903ZM77.4104 149.225C77.429 149.675 77.5208 149.766 77.6444 149.458C77.7566 149.18 77.7427 148.846 77.614 148.718C77.4852 148.59 77.3936 148.818 77.4104 149.225ZM84.9823 149.07C85.0943 149.251 85.3481 149.298 85.5465 149.176C86.0537 148.864 85.9967 148.742 85.3432 148.742C85.0326 148.742 84.8703 148.89 84.9823 149.07ZM-12.8396 149.255C-13.1415 149.377 -13.3241 150.221 -13.3241 151.497C-13.3241 153.128 -13.1861 153.577 -12.6458 153.706C-11.0596 154.084 -10.6108 153.653 -10.6108 151.753C-10.6108 149.424 -11.31 148.64 -12.8396 149.255ZM14.9646 149.588C14.2913 150.397 14.6398 150.617 16.3636 150.474C17.7645 150.357 17.8009 150.32 17.1501 149.676C16.3105 148.844 15.6081 148.816 14.9646 149.588ZM34.5474 149.772C33.8567 150.533 33.8702 150.545 35.4563 150.545C37.1159 150.545 37.4092 150.268 36.6017 149.463C35.9361 148.8 35.3502 148.888 34.5474 149.772ZM51.2834 149.289C51.0389 149.703 51.656 151.185 52.2168 151.53C52.5207 151.718 52.5919 151.662 52.415 151.377C52.2344 151.085 52.4738 150.931 53.1076 150.931C54.3248 150.931 54.7742 150.256 54.0434 149.528C53.3078 148.795 52.1915 149.25 52.1572 150.296C52.1307 151.099 52.1203 151.1 51.818 150.351C51.6462 149.927 51.5819 149.449 51.674 149.289C51.7669 149.13 51.7553 148.999 51.6485 148.999C51.5419 148.999 51.3776 149.13 51.2834 149.289ZM59.9631 149.723C59.2722 151.009 59.4391 153.518 60.2275 153.706C61.9442 154.115 62.3056 153.686 62.1838 151.382C62.083 149.468 61.962 149.178 61.2228 149.073C60.6888 148.997 60.2244 149.237 59.9631 149.723ZM67.4496 149.676C66.799 150.32 66.8353 150.357 68.2362 150.474C69.9598 150.617 70.3083 150.397 69.635 149.588C68.9916 148.816 68.2893 148.844 67.4496 149.676ZM74.5184 149.498C74.0226 149.859 73.869 150.405 73.9599 151.487C74.1064 153.229 75.0522 154.067 76.12 153.401C77.0928 152.793 77.2587 150.149 76.3651 149.498C75.9889 149.224 75.5736 148.999 75.4417 148.999C75.3099 148.999 74.8943 149.224 74.5184 149.498ZM89.9846 149.627C89.1679 150.441 89.3469 152.826 90.2682 153.401C91.321 154.058 92.282 153.229 92.4254 151.541C92.6161 149.291 91.3324 148.284 89.9846 149.627ZM114.793 149.627C113.976 150.441 114.155 152.826 115.076 153.401C116.129 154.058 117.09 153.229 117.233 151.541C117.424 149.291 116.14 148.284 114.793 149.627ZM100.056 149.772C99.9241 149.985 100.001 150.158 100.227 150.158C100.452 150.158 100.637 149.985 100.637 149.772C100.637 149.56 100.561 149.386 100.466 149.386C100.372 149.386 100.187 149.56 100.056 149.772ZM33.1906 150.738C33.1906 151.056 33.3596 151.317 33.5663 151.317C33.7726 151.317 33.841 151.056 33.7187 150.738C33.5957 150.419 33.4267 150.158 33.3431 150.158C33.2593 150.158 33.1906 150.419 33.1906 150.738ZM47.594 150.931C47.594 151.462 47.6819 151.679 47.7893 151.414C47.8971 151.148 47.8971 150.714 47.7893 150.448C47.6819 150.183 47.594 150.4 47.594 150.931ZM-31.1549 150.638C-31.1549 150.705 -30.8058 151.057 -30.3796 151.421C-29.9532 151.784 -29.6044 151.916 -29.6044 151.713C-29.6044 151.51 -29.9532 151.158 -30.3796 150.931C-30.8058 150.703 -31.1549 150.572 -31.1549 150.638ZM-24.9528 150.931C-24.9528 151.143 -24.7679 151.317 -24.5423 151.317C-24.3167 151.317 -24.2396 151.143 -24.3714 150.931C-24.5032 150.719 -24.6877 150.545 -24.7819 150.545C-24.8761 150.545 -24.9528 150.719 -24.9528 150.931ZM13.4219 151.294C13.4219 152.227 13.6374 152.321 13.9448 151.523C14.065 151.211 13.9964 150.853 13.7925 150.727C13.5886 150.602 13.4219 150.857 13.4219 151.294ZM-26.3741 151.493C-26.3741 151.803 -26.2258 151.965 -26.0447 151.853C-25.8637 151.741 -25.8157 151.488 -25.9385 151.291C-26.2519 150.785 -26.3741 150.842 -26.3741 151.493ZM1.59938 152.081C0.113235 152.348 0.0465698 153.397 1.50481 153.564C2.19284 153.643 2.65413 153.475 2.80102 153.094C3.16966 152.137 2.83822 151.858 1.59938 152.081ZM-6.92832 152.862C-6.79654 153.075 -6.61203 153.248 -6.51784 153.248C-6.42365 153.248 -6.3469 153.075 -6.3469 152.862C-6.3469 152.65 -6.5318 152.476 -6.75738 152.476C-6.98299 152.476 -7.06012 152.65 -6.92832 152.862ZM-26.6437 153.441C-26.766 153.76 -26.6974 154.021 -26.4913 154.021C-26.2846 154.021 -26.1156 153.76 -26.1156 153.441C-26.1156 153.123 -26.1843 152.862 -26.2681 152.862C-26.3517 152.862 -26.5207 153.123 -26.6437 153.441ZM-10.3394 153.766C-10.4479 154.047 -10.2917 154.279 -9.99249 154.279C-9.38199 154.279 -9.26415 153.793 -9.7948 153.467C-9.98591 153.349 -10.2309 153.484 -10.3394 153.766ZM24.8568 153.635C24.725 153.847 24.8994 154.021 25.2444 154.021C25.5894 154.021 25.7637 153.847 25.6322 153.635C25.5003 153.422 25.3258 153.248 25.2444 153.248C25.163 153.248 24.9886 153.422 24.8568 153.635ZM51.6028 154.407C51.164 155.115 51.8265 155.566 53.3053 155.566C55.0033 155.566 55.4527 155.266 54.8467 154.539C54.3449 153.937 51.9552 153.839 51.6028 154.407Z" fill="url(#paint0_linear_351_21)"/>
</g>
<defs>
<linearGradient id="paint0_linear_351_21" x1="110.985" y1="50.2766" x2="-35.4407" y2="89.0925" gradientUnits="userSpaceOnUse">
<stop offset="0.18" stop-color="#AD8D5C"/>
<stop offset="0.29" stop-color="#FFE3B8"/>
<stop offset="0.415" stop-color="#FFC670"/>
<stop offset="1" stop-color="#BA9359"/>
</linearGradient>
</defs>
</svg>
