<svg width="35" height="33" viewBox="0 0 35 33" fill="none" xmlns="http://www.w3.org/2000/svg">
<path fill-rule="evenodd" clip-rule="evenodd" d="M16.0886 0.734309C14.2009 1.86877 12.5543 5.90222 12.5543 9.3915C12.5543 10.1251 12.3618 10.4982 11.9837 10.4982C11.5918 10.4982 11.413 10.1108 11.413 9.26061C11.413 8.57993 11.254 7.86288 11.0596 7.66674C10.8656 7.47097 10.6514 6.71979 10.5841 5.99785L10.462 4.68525L6.72114 4.65037C3.66891 4.62187 2.82853 4.73775 2.15592 5.28005C1.05418 6.16812 1.75228 7.05394 3.02484 6.38263C4.57283 5.56619 7.13886 6.81279 5.70652 7.68549C5.49728 7.813 5.32609 8.4978 5.32609 9.20773C5.32609 10.2481 5.17886 10.4982 4.56522 10.4982C3.07658 10.4982 2.28261 11.8029 2.28261 14.2485C2.28261 16.1653 2.18103 16.4987 1.59783 16.4987C0.482391 16.4987 0 17.2911 0 19.1239C0 20.9567 0.482391 21.7491 1.59783 21.7491C2.05435 21.7491 2.28261 22.0304 2.28261 22.5922C2.28261 23.9828 4.98522 31.5389 5.7537 32.2964C6.4187 32.952 7.21609 33 17.4273 33C25.5953 33 28.5528 32.8807 29.0367 32.5312C29.6834 32.0647 32.7174 23.7416 32.7174 22.4347C32.7174 22.0244 32.9924 21.7491 33.4022 21.7491C34.5176 21.7491 35 20.9567 35 19.1239C35 17.2945 34.5176 16.4987 33.4094 16.4987C33.0061 16.4987 32.6695 16.157 32.5778 15.6549C32.4929 15.191 32.1783 13.4943 31.8785 11.8847C31.5787 10.2751 31.4737 8.87283 31.6449 8.76857C32.1273 8.47493 32.0124 5.45293 31.5 4.94777C31.204 4.656 29.6671 4.49773 27.1326 4.49773H23.2221L22.438 2.98299C21.5745 1.3141 19.7343 0 18.2609 0C17.7378 0 16.7604 0.330401 16.0886 0.734309ZM16.3252 2.28056C15.8885 2.71109 15.3041 3.59879 15.0268 4.25359C14.3618 5.82196 13.6957 10.6508 13.6957 13.9005V16.4987H17.1024H20.5089L20.7375 15.0923C20.863 14.319 21.1891 12.6265 21.4622 11.3315C21.7822 9.81191 21.8252 8.89608 21.5832 8.7487C21.3679 8.61744 21.2929 7.59698 21.4078 6.35038C21.6114 4.13808 21.2313 3.07224 19.8446 1.96628C18.9483 1.25147 17.212 1.40636 16.3252 2.28056ZM7.6087 6.74791C7.6087 7.24783 7.86245 7.49797 8.36957 7.49797C8.87669 7.49797 9.13043 7.24783 9.13043 6.74791C9.13043 6.248 8.87669 5.99785 8.36957 5.99785C7.86245 5.99785 7.6087 6.248 7.6087 6.74791ZM22.8261 6.67291C22.8261 7.04419 22.995 7.51447 23.2016 7.71811C23.4485 7.96151 23.318 9.40387 22.8211 11.9316C22.4053 14.0456 22.0652 15.938 22.0652 16.1368C22.0652 16.3491 23.9526 16.4987 26.6304 16.4987C29.3083 16.4987 31.1957 16.3491 31.1957 16.1368C31.1957 15.938 30.8555 14.0456 30.4397 11.9316C29.9429 9.40387 29.8124 7.96151 30.0593 7.71811C30.2659 7.51447 30.4348 7.04419 30.4348 6.67291C30.4348 6.06798 30.0403 5.99785 26.6304 5.99785C23.2206 5.99785 22.8261 6.06798 22.8261 6.67291ZM15.3814 7.16495C15.2376 7.39409 15.3559 7.72899 15.6442 7.90901C16.5135 8.45205 17.7439 8.29116 18.6942 7.51035L19.5924 6.77304L17.6176 6.76029C16.5314 6.75354 15.5252 6.93543 15.3814 7.16495ZM6.84783 9.74815C6.84783 10.3733 7.10158 10.4982 8.36957 10.4982C9.63755 10.4982 9.8913 10.3733 9.8913 9.74815C9.8913 9.12298 9.63755 8.99809 8.36957 8.99809C7.10158 8.99809 6.84783 9.12298 6.84783 9.74815ZM15.3814 11.6653C15.2376 11.8944 15.3559 12.2293 15.6442 12.4094C16.5135 12.9524 17.7439 12.7915 18.6942 12.0107L19.5924 11.2734L17.6176 11.2606C16.5314 11.2539 15.5252 11.4358 15.3814 11.6653ZM4.0581 12.2485C3.91848 12.3857 3.80435 13.3983 3.80435 14.4987V16.4987H7.98913H12.1739V14.2485V11.9983H8.24288C6.08049 11.9983 4.19734 12.1108 4.0581 12.2485ZM1.52174 19.1239V20.249H17.5H33.4783V19.1239V17.9988H17.5H1.52174V19.1239ZM3.82984 22.5929C3.84353 23.0568 4.48571 25.2088 5.25647 27.3746L6.65761 31.3124H17.5H28.3424L29.7435 27.3746C30.5143 25.2088 31.1565 23.0568 31.1702 22.5929C31.1937 21.8095 31.0336 21.7491 28.9279 21.7491H26.6601L26.5502 25.0306L26.4402 28.3121H24.3478H22.2554L22.1455 25.0306L22.0355 21.7491H20.9239H19.8123L19.7023 25.0306L19.5924 28.3121H17.5H15.4076L15.2977 25.0306L15.1877 21.7491H14.0761H12.9645L12.8545 25.0306L12.7446 28.3121H10.6522H8.55978L8.44984 25.0306L8.33989 21.7491H6.07212C3.96641 21.7491 3.80625 21.8095 3.82984 22.5929ZM9.8913 24.3743C9.8913 26.7494 9.96359 26.9995 10.6522 26.9995C11.3408 26.9995 11.413 26.7494 11.413 24.3743C11.413 21.9993 11.3408 21.7491 10.6522 21.7491C9.96359 21.7491 9.8913 21.9993 9.8913 24.3743ZM16.7391 24.3743C16.7391 26.7494 16.8114 26.9995 17.5 26.9995C18.1886 26.9995 18.2609 26.7494 18.2609 24.3743C18.2609 21.9993 18.1886 21.7491 17.5 21.7491C16.8114 21.7491 16.7391 21.9993 16.7391 24.3743ZM23.587 24.3743C23.587 26.7494 23.6592 26.9995 24.3478 26.9995C25.0364 26.9995 25.1087 26.7494 25.1087 24.3743C25.1087 21.9993 25.0364 21.7491 24.3478 21.7491C23.6592 21.7491 23.587 21.9993 23.587 24.3743Z" fill="#454545"/>
</svg>
