<svg width="61" height="61" viewBox="0 0 61 61" fill="none" xmlns="http://www.w3.org/2000/svg">
<path fill-rule="evenodd" clip-rule="evenodd" d="M4.94492 0.644121C1.90034 1.89194 0.47303 4.3975 0.13432 9.08713C-0.317293 15.33 0.345632 17.6508 2.49232 17.3453C3.99897 17.1308 4.22325 16.5496 4.56349 11.9867C4.77327 9.1719 5.39043 6.42273 5.93511 5.87748C6.47979 5.33222 9.22227 4.71442 12.0304 4.50442C16.2505 4.18903 17.1835 3.87363 17.4093 2.68691C17.5596 1.89729 17.2193 0.957222 16.6533 0.598302C15.3587 -0.223395 6.98175 -0.189794 4.94492 0.644121ZM44.3482 0.555537C43.7821 0.93813 43.4419 1.89729 43.5922 2.68691C43.818 3.87363 44.751 4.18903 48.9711 4.50442C51.7792 4.71442 54.5217 5.33222 55.0664 5.87748C55.611 6.42273 56.2282 9.1719 56.438 11.9867C56.7782 16.5496 57.0025 17.1308 58.5091 17.3453C60.6612 17.6516 61.3188 15.3293 60.8633 9.02451C60.5956 5.32153 60.1363 4.04164 58.4824 2.38526C56.6974 0.599066 55.7186 0.302766 50.905 0.0973418C47.8642 -0.0332438 44.9135 0.172944 44.3482 0.555537ZM15.7218 21.7089C14.8377 24.0167 15.2252 28.7391 16.3779 29.6968C18.7107 31.6349 19.9138 30.0358 19.6681 25.3233C19.4698 21.5073 19.2241 20.8925 17.8197 20.6917C16.8646 20.555 16.0041 20.9727 15.7218 21.7089ZM28.753 21.0178C28.4555 21.3156 28.2122 24.0625 28.2122 27.1217C28.2122 31.4127 27.9345 32.8392 26.9992 33.3638C26.2707 33.7716 25.8892 34.7797 26.0456 35.8832C26.3897 38.3246 29.1413 38.7026 31.2453 36.5964C32.6772 35.163 32.8229 34.252 32.6268 27.9587C32.427 21.5424 32.2706 20.9032 30.8509 20.7001C29.9942 20.5771 29.0505 20.7207 28.753 21.0178ZM41.6896 21.0506C41.4096 21.3301 41.1808 23.4027 41.1808 25.6562C41.1808 30.0366 42.438 31.5127 44.6236 29.6968C45.7671 28.7468 46.1661 24.022 45.2949 21.7494C44.828 20.5321 42.6325 20.1067 41.6896 21.0506ZM20.8483 42.3338C20.2334 43.939 22.5044 46.2659 25.7237 47.3289C31.4124 49.2082 40.0365 46.598 40.0365 42.9974C40.0365 41.0753 37.8379 40.7622 34.7255 42.2406C31.5481 43.7504 29.2168 43.7672 26.4088 42.3009C23.6007 40.8347 21.4181 40.8477 20.8483 42.3338ZM0.305201 45.3388C0.0313342 46.4308 -0.0441889 49.3892 0.138135 51.9131C0.404373 55.5924 0.868192 56.8998 2.48317 58.5157C4.09738 60.1324 5.4034 60.5967 9.07886 60.8632C15.377 61.3191 17.6969 60.6608 17.391 58.5065C17.1766 56.9983 16.5961 56.7738 12.038 56.4332C9.22609 56.2232 6.47979 55.6054 5.93511 55.0602C5.39043 54.5149 4.77327 51.7657 4.56349 48.9509C4.22325 44.388 3.99897 43.8069 2.49232 43.5923C1.213 43.4105 0.682054 43.8336 0.305201 45.3388ZM56.9468 43.9604C56.6668 44.2399 56.438 46.4079 56.438 48.7783C56.438 54.9235 55.4333 55.9666 49.0626 56.4332C44.4016 56.7746 43.8256 56.9937 43.6105 58.5065C43.3046 60.6608 45.6244 61.3191 51.9226 60.8632C58.2749 60.4027 60.4033 58.2721 60.8633 51.9131C61.2821 46.1124 60.6459 43.451 58.8395 43.451C58.0781 43.451 57.226 43.6801 56.9468 43.9604Z" fill="white"/>
</svg>
